<?xml version="1.0" encoding="utf-8"?>
<!-- Generator: Adobe Illustrator 27.5.0, SVG Export Plug-In . SVG Version: 6.00 Build 0)  -->
<svg version="1.1" id="Layer_1" xmlns="http://www.w3.org/2000/svg" xmlns:xlink="http://www.w3.org/1999/xlink" x="0px" y="0px"
	 viewBox="0 0 1000 650" style="enable-background:new 0 0 1000 650;" xml:space="preserve">
<style type="text/css">
	.st0{fill:#FFCE00;}
	.st1{fill:#FFFFFF;}
	.st2{fill:#3F66B0;}
	.st3{fill:#FCDE00;}
	.st4{fill:#EC1C24;}
</style>
<g>
	<g id="XMLID_00000151515648968447286170000012366939969579745452_">
		<g>
			<path class="st0" d="M996.4,41.2l0,567.5c0,21-17,38-38,38H41.6c-21,0-38-17-38-38l0-567.5c0-21,17-38,38-38h916.7
				C979.3,3.2,996.4,20.2,996.4,41.2z M967.3,596V193.3c0-10.6-8.6-19.1-19.1-19.1H51.9c-10.6,0-19.1,8.6-19.1,19.1V596
				c0,10.6,8.6,19.1,19.1,19.1h896.3C958.7,615.1,967.3,606.5,967.3,596z M656.5,114.7c0-5-1-9.6-2.8-13.8c-1.9-4.2-4.5-7.7-8-10.7
				c-3.4-3-7.4-5.3-12.1-7c-4.7-1.7-9.7-2.5-15.1-2.5c-5.5,0-10.6,0.9-15.2,2.6c-4.6,1.7-8.7,4.1-12,7.1c-3.4,3-6,6.5-7.9,10.6
				s-2.8,8.4-2.8,13.1c0,5.2,0.9,9.9,2.8,14.1c1.9,4.2,4.5,7.9,7.8,10.9c3.3,3.1,7.3,5.4,11.9,7c4.6,1.7,9.6,2.5,15.1,2.5
				c5.5,0,10.6-0.8,15.4-2.5c4.7-1.6,8.8-4,12.1-7c3.4-3,6-6.6,8-10.7C655.6,124.3,656.5,119.7,656.5,114.7z M567.7,146.2V43.8
				h-22.3v102.4H567.7z M530.1,146.2V43.8h-22.3v102.4H530.1z M495,118.4V116c0-5.5-0.8-10.5-2.3-14.9c-1.6-4.4-3.8-8.1-6.8-11.2
				c-3-3-6.6-5.4-10.9-7c-4.3-1.6-9.1-2.4-14.4-2.4c-5.4,0-10.3,0.8-14.6,2.4c-4.3,1.6-8,3.9-11,6.8c-3,3-5.4,6.6-7,10.8
				c-1.7,4.2-2.5,9-2.5,14.3c0,5.1,0.9,9.7,2.6,13.8c1.7,4.1,4.2,7.7,7.3,10.6c3.2,3,7,5.2,11.4,6.9c4.4,1.6,9.3,2.4,14.7,2.4
				c17.4,0,28.3-7.2,32.7-21.7h-21.6c-2.5,3.9-6.1,5.9-11,5.9c-9.1,0-13.6-4.8-13.6-14.4H495z M412.7,146.2V106
				c0-7.5-2-13.4-6.1-17.8c-4.1-4.4-10.1-6.6-18.1-6.6c-4.2,0-7.9,0.6-11,1.9c-3.1,1.3-6.2,3.8-9.3,7.5V43.8H346v102.4h22.3v-33.8
				c0-4.2,1-7.4,3-9.7c2-2.3,4.9-3.4,8.7-3.4c2.8,0,5.2,0.9,7.2,2.6c1.1,1.1,2,2.6,2.5,4.6c0.5,2,0.7,4.6,0.7,7.8v32H412.7z"/>
			<path class="st1" d="M967.3,193.3V596c0,10.6-8.6,19.1-19.1,19.1H51.9c-10.6,0-19.1-8.6-19.1-19.1V193.3
				c0-10.6,8.6-19.1,19.1-19.1h896.3C958.7,174.1,967.3,182.7,967.3,193.3z M753.9,525.2c0.6-3,0.5-5.5-0.5-8.8
				c-1.1-3.4-2.9-6.2-7.2-10.7c-4.6-4.8-6.7-7.5-9.3-11.8c-1.9-3.2-8.4-18-9.9-22.4c-2.4-7.3-4.6-14.9-5.7-19.8
				c-0.7-3-1.8-7.8-2.6-10.7c-1.4-5.5-3.5-17.4-4.2-23.5c-0.9-8.1-1.3-20.2-1-31.7c0.2-7.8,0.1-12.6-0.2-14
				c-1.3-6.8-6.4-11.9-13-13.1c-6.5-1.1-13.6,2.5-16.7,8.7c-0.6,1.2-1.7,4.1-2.4,6.4c-4,13.9-22.7,64.3-24.4,66.1
				c-0.6,0.6-0.4,1.9-2.8-16.6c-2.4-18.6-6.7-44.1-9.9-58.4c-1.7-7.9-2.9-14.1-3.6-19.8c-1-8-2.5-18.2-3.4-22.8
				c-1-4.9-4.1-9.1-8.2-11c-1.9-0.9-2.8-1.1-6-1.1c-3.3,0-4.1,0.2-6.2,1.1c-2.9,1.3-5.9,4.3-7.4,7.2c-0.6,1.1-1.4,3.6-1.9,5.5
				c-0.5,2-2.8,8-5.2,13.6c-2.4,5.5-6.3,15.2-8.7,21.6c-9.8,25.9-11.5,30.3-12.1,30.3c-0.2,0-0.9-2.1-1.5-4.7
				c-8.4-32.1-13-49.8-14.2-53.6c-3.8-12.8-7.5-18.3-13.8-20.5c-5.3-1.9-11.5-0.2-15.5,4.1c-2.2,2.4-3.5,5.1-4.7,9.7
				c-0.5,2.1-2,6.9-3.1,10.6c-1.2,3.7-3.1,10.5-4.4,15c-2.5,9.2-8.4,29.6-11.1,37.8c-1,2.9-3,9.4-4.6,14.5c-1.5,5-5.2,16.2-8.2,24.9
				c-13.8,40.6-27.1,80.9-28,84.6c-2.9,12.1-2.3,19.2,2.1,23.6c2.2,2.3,4.6,3.2,8.1,3.2c5.5,0,10.3-4.2,14.5-12.4
				c3-6.1,5.6-13.9,14.9-45.2c1.6-5.5,3.7-12.4,4.7-15.4s2.7-8.8,3.8-12.7c7.3-25.6,22.6-73.5,23.5-73.5c0.2,0,1.1,2.9,1.9,6.5
				c3.1,13.2,8.6,35.1,10.1,40.6c0.9,3.1,2.4,7.6,3.3,9.9c1,2.3,2.2,5.8,2.7,7.6c1.7,5.5,4.3,8.7,9,10.8c2.7,1.2,8.5,1.2,11.2,0
				c4.1-1.9,7-5.1,8.7-9.5c0.5-1.5,2-5.3,3.2-8.4c1.2-3.2,3.3-9.1,4.8-13.3c1.4-4.1,3.6-10.3,4.9-13.6c5.5-14.1,8.4-21.3,9-22.6
				l0.7-1.3l0.3,4c0.2,2.2,0.5,8,0.8,12.9c0.7,13.9,4,50,6.7,73.4c0.9,7.4,1.9,16.9,2.4,21.2c1.3,11.9,2.6,17.1,5.7,21.9
				c5.3,8.3,14.9,11.2,23.2,7c2.2-1.2,5.6-4.4,7-6.8c3.2-5.6,8.5-15.5,9.6-18c3.4-7.9,15.1-41.4,17.7-50.6c0.4-1.2,0.8-2.3,1-2.3
				c0.2,0,0.7,1.7,1.2,3.8c2.8,12.5,11.6,36.1,18.2,49.5c2.4,4.8,6.3,12.9,8.8,18c4.9,10.1,6.9,13,10.5,15.5
				c7.2,5.1,16.4,4.4,22.4-1.5C751.7,531.8,753.2,529,753.9,525.2z M746.6,580.9c8.5-9,4.9-23.2-7-27.5c-2-0.7-3.1-0.8-7.1-0.7
				c-2.6,0-6.3,0.1-8.1,0.1s-14.5-0.1-28.1-0.2c-39.6-0.3-169.2,1.3-197,2.5c-5,0.2-15.3,0.4-23,0.4c-15.2,0-18.5,0.3-21.1,1.8
				c-4.8,2.8-5.4,9.4-1.2,13c2.5,2.1,4.4,2.5,15.1,3c12.3,0.5,27.1,1.4,40,2.4c5.7,0.4,17.9,1.1,27.1,1.6c9.3,0.4,22.5,1.2,29.5,1.6
				c7,0.4,17.6,1,23.8,1.2c11.8,0.4,19.5,0.9,31.9,1.8c4.2,0.3,13.6,0.8,20.8,1c7.2,0.2,19.3,0.8,26.9,1.2
				c19.2,1.1,22.9,1.2,42.6,1.6c9.5,0.2,18.9,0.5,20.9,0.6C738.5,586.5,742.9,584.9,746.6,580.9z M731.6,323.8
				c2.3-4.8,3.1-8.1,3.1-13c0-10.3-5.4-19.5-14-23.7c-1.8-0.9-4.4-1.9-5.7-2.3c-3.4-0.9-9.3-1-12.7-0.4c-11.7,2.3-20.4,10.8-22.6,22
				c-1.2,6.1-0.1,13,3.1,18.6c1.9,3.4,7.4,8.6,11.2,10.6c4.6,2.4,7.4,3.1,13.3,3.1c4.5,0,5.2-0.1,8.4-1.2c4.8-1.7,7.4-3.4,11-6.9
				C729.3,328.1,730.2,326.9,731.6,323.8z M663.1,235c0.6-1.3,1-2.8,1-4.4c0-2.2-0.7-3.9-2-5.3c-1.3-1.4-3.3-2.3-6-2.9
				c-1-0.2-1.8-0.4-2.3-0.5c-0.6-0.1-1-0.3-1.3-0.5c-0.3-0.2-0.5-0.4-0.6-0.6c-0.1-0.2-0.1-0.5-0.1-0.8c0-0.6,0.3-1.1,0.8-1.4
				c0.6-0.4,1.3-0.5,2.2-0.5c1.7,0,3.5,0.5,5.3,1.4l3.3-6.4c-2.9-1.2-5.8-1.8-8.9-1.8c-1.9,0-3.6,0.2-5.1,0.7
				c-1.5,0.5-2.8,1.1-3.9,2c-1.1,0.9-1.9,1.9-2.5,3.2c-0.6,1.2-0.9,2.6-0.9,4.2c0,2.1,0.6,3.8,1.8,5c1.2,1.2,3.3,2.1,6.3,2.7
				c0.9,0.2,1.6,0.3,2.2,0.5c0.6,0.2,1,0.3,1.3,0.5c0.3,0.2,0.5,0.4,0.6,0.6c0.1,0.2,0.1,0.5,0.1,0.9c0,0.6-0.3,1.1-0.9,1.5
				c-0.6,0.4-1.3,0.6-2.2,0.6c-2.4,0-5-0.9-7.8-2.8l-3.5,6.9c3.6,2.1,7.3,3.2,11,3.2c1.9,0,3.7-0.2,5.3-0.7c1.6-0.5,3-1.2,4.2-2
				C661.5,237.4,662.4,236.3,663.1,235z M635.5,201.8c0-0.8-0.1-1.5-0.4-2.1c-0.3-0.7-0.7-1.2-1.2-1.8c-0.5-0.5-1.1-0.9-1.7-1.2
				c-0.7-0.3-1.4-0.4-2.1-0.4c-0.8,0-1.5,0.2-2.1,0.4c-0.7,0.3-1.2,0.7-1.8,1.2s-0.9,1.1-1.2,1.8c-0.3,0.7-0.4,1.4-0.4,2.1
				s0.1,1.5,0.4,2.1c0.3,0.7,0.7,1.2,1.2,1.7c0.5,0.5,1.1,0.9,1.8,1.2c0.7,0.3,1.4,0.4,2.1,0.4c0.8,0,1.5-0.2,2.1-0.4
				c0.7-0.3,1.2-0.7,1.7-1.2c0.5-0.5,0.9-1.1,1.2-1.7C635.4,203.3,635.5,202.6,635.5,201.8z M635,240v-27.6h-9.7V240H635z
				 M601.4,227.9v-1c0-2.4-0.4-4.6-1-6.5s-1.7-3.5-3-4.9c-1.3-1.3-2.9-2.3-4.7-3c-1.9-0.7-4-1.1-6.3-1.1c-2.4,0-4.5,0.4-6.4,1.1
				c-1.9,0.7-3.5,1.7-4.8,3c-1.3,1.3-2.4,2.9-3.1,4.7c-0.7,1.9-1.1,3.9-1.1,6.2c0,2.2,0.4,4.2,1.1,6c0.8,1.8,1.8,3.3,3.2,4.6
				c1.4,1.3,3,2.3,5,3c1.9,0.7,4.1,1,6.4,1c7.6,0,12.3-3.1,14.2-9.5h-9.4c-1.1,1.7-2.7,2.6-4.8,2.6c-3.9,0-5.9-2.1-5.9-6.3H601.4z
				 M565.5,240v-17.9c0-1.8-0.2-3.4-0.7-4.7c-0.5-1.3-1.1-2.3-2-3.1c-0.8-0.8-1.8-1.4-3-1.8c-1.2-0.4-2.4-0.6-3.7-0.6
				c-4,0-7.2,1.7-9.4,5.2c-2.1-3.4-5.3-5.2-9.3-5.2c-3.3,0-6.3,1.3-8.9,3.8v-3.4h-9.7V240h9.7v-13.6c0-1.5,0.1-2.7,0.3-3.6
				c0.2-0.9,0.5-1.6,1-2.2c0.4-0.5,0.9-0.9,1.4-1c0.5-0.2,1.1-0.3,1.7-0.3c0.7,0,1.4,0.1,1.9,0.3c0.5,0.2,1,0.6,1.3,1.1
				c0.3,0.5,0.6,1.3,0.8,2.2c0.2,0.9,0.3,2.1,0.3,3.5V240h9.7v-13.6c0-4.6,1.6-6.8,4.7-6.8c0.6,0,1.1,0.1,1.6,0.3
				c0.5,0.2,0.9,0.5,1.3,1c0.4,0.5,0.7,1.2,0.9,2.1c0.2,0.9,0.3,2,0.3,3.4V240H565.5z M532.3,290.6c3.2-6.7,1-14.3-5.2-17.7
				c-1.7-0.9-2.5-1.1-5.5-1.2c-2.8-0.1-3.8,0-5.5,0.7c-2.9,1.1-6.3,4.6-8.2,8.3c-0.8,1.6-3.3,5.5-5.5,8.8
				c-6,8.6-21.4,32.2-29.3,44.8c-7,11.3-11.6,18.3-12.5,19c-0.4,0.3-0.8-0.1-2-2.1c-0.8-1.4-3.3-5.8-5.7-9.7
				c-2.3-3.9-5.1-8.6-6.1-10.4c-3.8-6.8-8.1-9.2-12.6-7.2c-3,1.3-4.6,4.7-4.2,8.4c0.2,1.2,1.3,4.7,2.7,8.2c1.4,3.4,3.3,8.5,4.4,11.3
				c5.6,15.1,9.9,24,13.6,28.5c2.2,2.7,6.5,3.8,10.2,2.7c2.1-0.6,5.1-3.4,6.2-5.8c0.5-1.1,2.1-3.4,3.4-5c1.3-1.6,4.4-5.8,6.9-9.3
				c2.5-3.5,6.2-8.3,8.1-10.7c12.5-15.5,31.1-39.9,37.2-48.8c1.9-2.8,4.7-6.4,6.2-7.9C530.2,293.9,531.8,291.7,532.3,290.6z
				 M512.2,240v-27.6h-9.8v2.7c-2.3-2.4-5.1-3.6-8.6-3.6c-2,0-3.9,0.4-5.6,1.1c-1.7,0.8-3.1,1.8-4.4,3.1c-1.2,1.3-2.2,2.9-2.9,4.7
				c-0.7,1.8-1,3.6-1,5.6c0,2.1,0.4,4.1,1,5.9c0.7,1.8,1.7,3.4,2.9,4.7c1.3,1.3,2.7,2.4,4.4,3.1c1.7,0.7,3.5,1.1,5.5,1.1
				c3.6,0,6.4-1.3,8.5-3.9v3.1H512.2z M476.8,454.6c1.4-5.2,1.9-12,1.4-17c-1.8-17.8-13.1-30.8-32.2-37.1
				c-7.6-2.5-18.1-3.6-31.4-3.3c-23.1,0.6-49.7,5.9-78.3,15.5c-4.8,1.6-8.8,2.8-8.9,2.8c-0.5-0.5,16.6-23.4,24.9-33.2
				c3.9-4.7,11.4-12.5,24.3-25.3c11.2-11.2,21.9-22.2,26.8-27.7c4.4-5,10.4-11.4,13.3-14.3c4.4-4.4,5.4-5.7,6.7-8.3
				c1.5-3,1.5-3.2,1.5-7.3c0-3.7-0.1-4.4-1.1-6.3c-1.5-3-4-5.4-7-6.9c-1.9-0.9-3.2-1.2-5.4-1.3c-3.4-0.2-5.1,0.2-8.2,1.9
				c-3,1.6-5.7,4.5-8.7,9.7c-5.5,9.2-20.5,26.8-36.9,43.1c-14.8,14.7-27.2,24.7-42.2,34.2c-14,8.9-25.4,13-34.4,12.6
				c-3-0.2-3.4-0.3-4.2-1.3c-2.9-3.4-3.6-15.1-1.5-27.2c0.9-5.2,3.6-15.8,6.3-24.4c3.1-9.9,4.2-14,4.2-16c0-7.2-6.8-11.6-12.9-8.5
				c-3.4,1.7-5.4,4.4-10.1,13.9c-6.7,13.4-12.4,30.9-14.3,43.7c-1.5,9.7-0.6,20,2.2,27.2c2.9,7.6,8.8,14.3,15.3,17.6
				c6,3.1,8.7,3.7,16.8,3.6c6.2,0,7.3-0.1,10.9-1.1c2.2-0.6,5.1-1.5,6.6-2.1c1.5-0.6,2.9-0.9,3.1-0.9c0.2,0.1-0.4,1.3-1.5,2.7
				c-1,1.4-3.9,5.6-6.4,9.3c-2.5,3.7-4.8,6.9-5.1,7.1c-0.4,0.2-4.1,2-8.4,4c-11.9,5.5-28.5,14-34.6,17.6c-8.2,5-11.4,8.1-12,11.6
				c-0.6,4.4,2.7,8.1,7.5,8.1c3,0,6.9-1.5,19.2-7.5c6.3-3,11.6-5.5,11.8-5.5c0.3,0-0.5,2.1-1.7,4.6c-7.9,16.7-11.4,25.8-14.7,37.4
				c-3.6,12.8-5,22.8-4.7,34c0.2,8.6,0.9,13.1,3,19.4c4.6,13.9,12.8,23.7,24.7,29.4c12.4,6.1,24.8,7.4,42.3,4.5
				c6.2-1,9.4-1.8,18.8-4.9c19-6.2,29.1-10.7,40.5-18.2c3-2,6.5-4.2,7.8-5c3.7-2.3,24.9-19,30.2-23.8c5.8-5.2,16.1-15.5,20.8-20.9
				c6-6.7,16-20.2,21.6-29.3C467.6,477.3,475.2,461,476.8,454.6z M474.5,240v-17.5c0-1.5-0.1-2.8-0.4-3.9c-0.3-1.1-0.8-2.2-1.6-3.1
				c-1-1.2-2.1-2-3.5-2.7c-1.4-0.6-3-0.9-5-0.9c-1.8,0-3.4,0.3-4.8,0.8c-1.4,0.6-2.7,1.6-4,3.2v-3.5h-9.7V240h9.7v-14.7
				c0-1.8,0.4-3.2,1.3-4.2c0.9-1,2.1-1.5,3.8-1.5c0.6,0,1.2,0.1,1.7,0.3c0.5,0.2,1,0.5,1.5,0.9c0.5,0.5,0.9,1.2,1,2
				c0.2,0.8,0.3,1.9,0.3,3.3V240H474.5z M401.6,253.8l22.2-41.4h-11.2l-7.2,14.1l-7.4-14.1h-11.3l13.3,23.8l-9.4,17.5H401.6z
				 M384.4,240v-17.9c0-1.8-0.2-3.4-0.7-4.7c-0.5-1.3-1.1-2.3-2-3.1c-0.8-0.8-1.8-1.4-2.9-1.8c-1.2-0.4-2.4-0.6-3.7-0.6
				c-4.1,0-7.2,1.7-9.4,5.2c-2.1-3.4-5.3-5.2-9.4-5.2c-3.3,0-6.3,1.3-8.9,3.8v-3.4h-9.7V240h9.7v-13.6c0-1.5,0.1-2.7,0.3-3.6
				c0.2-0.9,0.6-1.6,1-2.2c0.4-0.5,0.9-0.9,1.4-1c0.5-0.2,1.1-0.3,1.7-0.3c0.7,0,1.3,0.1,1.9,0.3c0.5,0.2,1,0.6,1.3,1.1
				c0.3,0.5,0.6,1.3,0.8,2.2c0.2,0.9,0.3,2.1,0.3,3.5V240h9.7v-13.6c0-4.6,1.6-6.8,4.7-6.8c0.6,0,1.1,0.1,1.6,0.3
				c0.5,0.2,0.9,0.5,1.3,1c0.4,0.5,0.7,1.2,0.9,2.1c0.2,0.9,0.3,2,0.3,3.4V240H384.4z"/>
			<path d="M753.4,516.5c1,3.2,1.1,5.7,0.5,8.8c-0.8,3.8-2.2,6.6-4.8,9.1c-6.1,5.9-15.2,6.5-22.4,1.5c-3.6-2.5-5.6-5.4-10.5-15.5
				c-2.5-5.1-6.5-13.2-8.8-18c-6.6-13.3-15.4-37-18.2-49.5c-0.5-2.1-1-3.8-1.2-3.8c-0.2,0-0.6,1-1,2.3c-2.5,9.1-14.2,42.6-17.7,50.6
				c-1.1,2.5-6.4,12.5-9.6,18c-1.4,2.4-4.8,5.6-7,6.8c-8.3,4.2-17.9,1.3-23.2-7c-3.1-4.8-4.4-10.1-5.7-21.9
				c-0.4-4.2-1.5-13.8-2.4-21.2c-2.7-23.4-6.1-59.6-6.7-73.4c-0.3-4.9-0.6-10.7-0.8-12.9l-0.3-4l-0.7,1.3c-0.7,1.3-3.6,8.6-9,22.6
				c-1.3,3.4-3.5,9.5-4.9,13.6c-1.4,4.1-3.6,10.1-4.8,13.3c-1.2,3.2-2.6,7-3.2,8.4c-1.6,4.4-4.6,7.6-8.7,9.5
				c-2.7,1.2-8.6,1.3-11.2,0c-4.6-2.1-7.3-5.3-9-10.8c-0.6-1.8-1.8-5.3-2.7-7.6c-1-2.3-2.4-6.8-3.3-9.9c-1.5-5.5-7-27.4-10.1-40.6
				c-0.9-3.6-1.7-6.5-1.9-6.5c-0.9,0-16.2,47.9-23.5,73.5c-1.1,3.9-2.8,9.6-3.8,12.7s-3,10-4.7,15.4c-9.4,31.2-11.9,39-14.9,45.2
				c-4.1,8.3-8.9,12.4-14.5,12.4c-3.5,0-5.9-0.9-8.1-3.2c-4.4-4.4-5.1-11.6-2.1-23.6c0.9-3.7,14.2-44,28-84.6c3-8.7,6.6-20,8.2-24.9
				c1.6-5,3.6-11.5,4.6-14.5c2.7-8.2,8.6-28.5,11.1-37.8c1.2-4.5,3.2-11.3,4.4-15c1.1-3.7,2.6-8.5,3.1-10.6c1.2-4.6,2.5-7.3,4.7-9.7
				c4-4.4,10.2-6,15.5-4.1c6.3,2.2,10,7.7,13.8,20.5c1.2,3.8,5.8,21.6,14.2,53.6c0.7,2.6,1.4,4.7,1.5,4.7c0.6,0,2.4-4.4,12.1-30.3
				c2.4-6.3,6.3-16,8.7-21.6c2.5-5.7,4.7-11.6,5.2-13.6c0.5-1.9,1.3-4.4,1.9-5.5c1.5-3,4.5-5.9,7.4-7.2c2.1-1,2.9-1.1,6.2-1.1
				c3.2,0,4.1,0.2,6,1.1c4.1,1.9,7.2,6.1,8.2,11c0.9,4.6,2.4,14.8,3.4,22.8c0.7,5.7,1.8,11.9,3.6,19.8c3.2,14.2,7.5,39.8,9.9,58.4
				c2.4,18.5,2.2,17.2,2.8,16.6c1.7-1.8,20.3-52.2,24.4-66.1c0.7-2.2,1.7-5.1,2.4-6.4c3.1-6.2,10.2-9.8,16.7-8.7
				c6.5,1.2,11.6,6.3,13,13.1c0.3,1.4,0.4,6.2,0.2,14c-0.3,11.5,0.1,23.5,1,31.7c0.7,6.1,2.8,18,4.2,23.5c0.8,2.9,1.9,7.7,2.6,10.7
				c1.2,5,3.3,12.6,5.7,19.8c1.5,4.4,8,19.2,9.9,22.4c2.5,4.4,4.7,7.1,9.3,11.8C750.5,510.2,752.3,513,753.4,516.5z"/>
			<path d="M739.6,553.4c11.9,4.2,15.5,18.5,7,27.5c-3.7,4-8.1,5.6-14,5.3c-2-0.1-11.4-0.4-20.9-0.6c-19.6-0.4-23.4-0.5-42.6-1.6
				c-7.6-0.4-19.7-1-26.9-1.2c-7.2-0.2-16.5-0.7-20.8-1c-12.4-0.9-20-1.3-31.9-1.8c-6.1-0.2-16.8-0.8-23.8-1.2
				c-7-0.4-20.2-1.1-29.5-1.6c-9.3-0.4-21.5-1.1-27.1-1.6c-12.9-1-27.7-1.9-40-2.4c-10.7-0.4-12.6-0.8-15.1-3
				c-4.2-3.6-3.6-10.2,1.2-13c2.6-1.5,5.8-1.8,21.1-1.8c7.6,0,18-0.2,23-0.4c27.8-1.1,157.4-2.8,197-2.5c13.6,0.1,26.2,0.2,28.1,0.2
				s5.5,0,8.1-0.1C736.5,552.6,737.6,552.7,739.6,553.4z"/>
			<path d="M734.8,310.8c0,4.9-0.8,8.2-3.1,13c-1.5,3-2.3,4.3-4.8,6.7c-3.6,3.5-6.3,5.2-11,6.9c-3.2,1.1-3.9,1.2-8.4,1.2
				c-5.9,0-8.6-0.6-13.3-3.1c-3.8-1.9-9.3-7.1-11.2-10.6c-3.2-5.7-4.3-12.5-3.1-18.6c2.2-11.2,10.9-19.7,22.6-22
				c3.4-0.6,9.3-0.5,12.7,0.4c1.3,0.4,3.9,1.4,5.7,2.3C729.4,291.3,734.8,300.5,734.8,310.8z"/>
			<path class="st0" d="M664,230.7c0,1.6-0.3,3.1-1,4.4c-0.7,1.3-1.6,2.4-2.7,3.2c-1.2,0.9-2.5,1.6-4.2,2c-1.6,0.5-3.4,0.7-5.3,0.7
				c-3.7,0-7.4-1.1-11-3.2l3.5-6.9c2.7,1.9,5.3,2.8,7.8,2.8c0.9,0,1.6-0.2,2.2-0.6c0.6-0.4,0.9-0.9,0.9-1.5c0-0.4-0.1-0.6-0.1-0.9
				c-0.1-0.2-0.3-0.4-0.6-0.6c-0.3-0.2-0.7-0.4-1.3-0.5c-0.5-0.2-1.3-0.3-2.2-0.5c-3-0.6-5.1-1.5-6.3-2.7c-1.2-1.2-1.8-2.9-1.8-5
				c0-1.5,0.3-2.9,0.9-4.2c0.6-1.2,1.4-2.3,2.5-3.2c1.1-0.9,2.4-1.5,3.9-2c1.5-0.5,3.2-0.7,5.1-0.7c3,0,6,0.6,8.9,1.8l-3.3,6.4
				c-1.8-0.9-3.5-1.4-5.3-1.4c-0.9,0-1.6,0.2-2.2,0.5c-0.6,0.4-0.8,0.8-0.8,1.4c0,0.3,0,0.6,0.1,0.8c0.1,0.2,0.3,0.4,0.6,0.6
				c0.3,0.2,0.8,0.3,1.3,0.5c0.6,0.1,1.4,0.3,2.3,0.5c2.7,0.5,4.7,1.5,6,2.9C663.4,226.7,664,228.5,664,230.7z"/>
			<path class="st1" d="M653.7,100.9c1.9,4.2,2.8,8.7,2.8,13.8c0,5-1,9.6-2.9,13.8c-1.9,4.2-4.6,7.7-8,10.7c-3.4,3-7.4,5.3-12.1,7
				c-4.7,1.7-9.9,2.5-15.4,2.5c-5.4,0-10.4-0.8-15.1-2.5c-4.6-1.6-8.6-4-11.9-7c-3.3-3-5.9-6.7-7.8-10.9c-1.9-4.2-2.8-8.9-2.8-14.1
				c0-4.7,0.9-9.1,2.8-13.1s4.5-7.6,7.9-10.6c3.4-3,7.4-5.4,12-7.1c4.6-1.7,9.7-2.6,15.2-2.6c5.4,0,10.5,0.8,15.1,2.5
				c4.6,1.7,8.7,4,12.1,7C649.2,93.2,651.8,96.8,653.7,100.9z M633,114.4c0-2-0.4-3.8-1.2-5.6c-0.8-1.8-1.8-3.3-3.1-4.6
				c-1.3-1.3-2.8-2.3-4.6-3.1c-1.8-0.7-3.6-1.1-5.6-1.1c-2,0-3.9,0.4-5.6,1.1c-1.8,0.7-3.3,1.8-4.6,3.1c-1.3,1.3-2.3,2.8-3.1,4.6
				c-0.8,1.7-1.2,3.6-1.2,5.6c0,2.1,0.4,4.1,1.2,5.9c0.8,1.8,1.8,3.3,3.1,4.6c1.3,1.3,2.8,2.3,4.6,3.1c1.8,0.7,3.6,1.1,5.6,1.1
				c2,0,3.8-0.4,5.6-1.1c1.8-0.7,3.3-1.8,4.6-3.1c1.3-1.3,2.3-2.9,3.1-4.6C632.6,118.4,633,116.5,633,114.4z"/>
			<path class="st0" d="M635.1,199.7c0.3,0.7,0.4,1.4,0.4,2.1s-0.1,1.5-0.4,2.1c-0.3,0.7-0.7,1.2-1.2,1.7c-0.5,0.5-1.1,0.9-1.7,1.2
				c-0.7,0.3-1.4,0.4-2.1,0.4c-0.8,0-1.5-0.2-2.1-0.4c-0.7-0.3-1.2-0.7-1.8-1.2c-0.5-0.5-0.9-1.1-1.2-1.7c-0.3-0.7-0.4-1.4-0.4-2.1
				s0.1-1.5,0.4-2.1c0.3-0.7,0.7-1.2,1.2-1.8s1.1-0.9,1.8-1.2c0.7-0.3,1.4-0.4,2.1-0.4c0.8,0,1.5,0.2,2.1,0.4
				c0.7,0.3,1.2,0.7,1.7,1.2C634.4,198.5,634.8,199,635.1,199.7z"/>
			<rect x="625.2" y="212.4" class="st0" width="9.7" height="27.6"/>
			<path class="st0" d="M631.8,108.8c0.8,1.8,1.2,3.6,1.2,5.6c0,2.1-0.4,4-1.2,5.7c-0.8,1.8-1.8,3.3-3.1,4.6
				c-1.3,1.3-2.8,2.3-4.6,3.1c-1.8,0.7-3.6,1.1-5.6,1.1c-2,0-3.9-0.4-5.6-1.1c-1.8-0.7-3.3-1.8-4.6-3.1c-1.3-1.3-2.3-2.9-3.1-4.6
				c-0.8-1.8-1.2-3.7-1.2-5.9c0-2,0.4-3.8,1.2-5.6c0.8-1.7,1.8-3.2,3.1-4.6c1.3-1.3,2.8-2.3,4.6-3.1c1.8-0.7,3.6-1.1,5.6-1.1
				c2,0,3.8,0.4,5.6,1.1c1.8,0.7,3.3,1.8,4.6,3.1C630,105.5,631,107,631.8,108.8z"/>
			<path class="st0" d="M601.4,226.8v1h-20.5c0,4.2,2,6.3,5.9,6.3c2.1,0,3.7-0.9,4.8-2.6h9.4c-1.9,6.3-6.7,9.5-14.2,9.5
				c-2.3,0-4.5-0.3-6.4-1c-1.9-0.7-3.6-1.7-5-3c-1.4-1.3-2.5-2.8-3.2-4.6c-0.8-1.8-1.1-3.8-1.1-6c0-2.3,0.4-4.4,1.1-6.2
				c0.7-1.8,1.7-3.4,3.1-4.7c1.3-1.3,2.9-2.3,4.8-3c1.9-0.7,4-1.1,6.4-1.1c2.3,0,4.4,0.4,6.3,1.1c1.9,0.7,3.4,1.7,4.7,3
				c1.3,1.3,2.3,2.9,3,4.9S601.4,224.4,601.4,226.8z M581.2,222.2h11.1c-0.3-1.4-1-2.5-2-3.3c-1-0.8-2.2-1.2-3.7-1.2
				c-1.5,0-2.7,0.4-3.7,1.2C582,219.7,581.4,220.8,581.2,222.2z"/>
			<path class="st1" d="M592.3,222.2h-11.1c0.2-1.4,0.9-2.5,1.8-3.3c1-0.8,2.2-1.2,3.7-1.2c1.4,0,2.7,0.4,3.7,1.2
				C591.3,219.8,592,220.9,592.3,222.2z"/>
			<rect x="545.4" y="43.8" class="st1" width="22.3" height="102.4"/>
			<path class="st0" d="M565.5,222.1V240h-9.7v-13.6c0-1.4-0.1-2.6-0.3-3.4c-0.2-0.9-0.5-1.6-0.9-2.1c-0.4-0.5-0.8-0.8-1.3-1
				c-0.5-0.2-1-0.3-1.6-0.3c-3.1,0-4.7,2.3-4.7,6.8V240h-9.7v-13.6c0-1.4-0.1-2.6-0.3-3.5c-0.2-0.9-0.4-1.6-0.8-2.2
				c-0.3-0.5-0.8-0.9-1.3-1.1c-0.5-0.2-1.2-0.3-1.9-0.3c-0.6,0-1.2,0.1-1.7,0.3c-0.5,0.2-1,0.5-1.4,1c-0.4,0.5-0.7,1.2-1,2.2
				c-0.2,0.9-0.3,2.1-0.3,3.6V240h-9.7v-27.6h9.7v3.4c2.6-2.5,5.6-3.8,8.9-3.8c4.1,0,7.2,1.7,9.3,5.2c2.2-3.5,5.3-5.2,9.4-5.2
				c1.3,0,2.5,0.2,3.7,0.6c1.1,0.4,2.1,1,3,1.8c0.8,0.8,1.5,1.9,2,3.1C565.2,218.7,565.5,220.3,565.5,222.1z"/>
			<path d="M527.1,272.9c6.3,3.4,8.5,11,5.2,17.7c-0.5,1.1-2.2,3.3-3.6,4.9c-1.5,1.6-4.2,5.1-6.2,7.9c-6.2,8.9-24.8,33.2-37.2,48.8
				c-1.9,2.4-5.5,7.2-8.1,10.7c-2.5,3.5-5.6,7.6-6.9,9.3c-1.3,1.6-2.8,3.9-3.4,5c-1.1,2.5-4,5.2-6.2,5.8c-3.7,1.1-8,0-10.2-2.7
				c-3.7-4.6-8-13.4-13.6-28.5c-1.1-2.8-3-7.9-4.4-11.3c-1.4-3.5-2.5-7-2.7-8.2c-0.4-3.7,1.2-7.1,4.2-8.4c4.5-2,8.9,0.4,12.6,7.2
				c1,1.8,3.8,6.5,6.1,10.4c2.4,3.9,4.9,8.2,5.7,9.7c1.2,2.1,1.6,2.5,2,2.1c0.9-0.7,5.5-7.7,12.5-19c7.9-12.6,23.3-36.2,29.3-44.8
				c2.2-3.2,4.7-7.2,5.5-8.8c1.9-3.7,5.3-7.2,8.2-8.3c1.7-0.7,2.7-0.8,5.5-0.7C524.6,271.8,525.4,272,527.1,272.9z"/>
			<rect x="507.7" y="43.8" class="st1" width="22.3" height="102.4"/>
			<path class="st0" d="M512.2,212.4V240h-9.8v-3.1c-2.1,2.6-4.9,3.9-8.5,3.9c-2,0-3.9-0.4-5.5-1.1c-1.7-0.7-3.2-1.8-4.4-3.1
				c-1.2-1.3-2.2-2.9-2.9-4.7c-0.7-1.8-1-3.7-1-5.9c0-2,0.3-3.8,1-5.6c0.7-1.8,1.6-3.3,2.9-4.7c1.2-1.3,2.7-2.4,4.4-3.1
				c1.7-0.8,3.5-1.1,5.6-1.1c3.4,0,6.3,1.2,8.6,3.6v-2.7H512.2z M502.7,226.2c0-0.9-0.2-1.7-0.5-2.4s-0.8-1.4-1.4-2
				c-0.5-0.6-1.2-1-2-1.3c-0.8-0.3-1.6-0.5-2.4-0.5c-0.9,0-1.7,0.2-2.5,0.5c-0.8,0.3-1.4,0.8-2,1.3c-0.6,0.6-1,1.2-1.3,2
				c-0.3,0.7-0.5,1.5-0.5,2.4c0,0.9,0.2,1.7,0.5,2.5s0.8,1.4,1.3,2c0.5,0.6,1.2,1,2,1.3c0.8,0.3,1.6,0.5,2.5,0.5
				c0.9,0,1.7-0.2,2.4-0.5c0.8-0.3,1.4-0.8,2-1.3c0.6-0.6,1-1.2,1.4-2S502.7,227.1,502.7,226.2z"/>
			<path class="st1" d="M502.2,223.8c0.3,0.8,0.5,1.6,0.5,2.4s-0.2,1.7-0.5,2.4s-0.8,1.4-1.4,2c-0.5,0.6-1.2,1-2,1.3
				c-0.8,0.3-1.6,0.5-2.4,0.5c-0.9,0-1.7-0.2-2.5-0.5c-0.8-0.3-1.4-0.8-2-1.3c-0.6-0.6-1-1.2-1.3-2s-0.5-1.6-0.5-2.5
				c0-0.9,0.2-1.7,0.5-2.4c0.3-0.7,0.8-1.4,1.3-2c0.5-0.6,1.2-1,2-1.3c0.8-0.3,1.6-0.5,2.5-0.5c0.9,0,1.7,0.2,2.4,0.5
				c0.8,0.3,1.4,0.8,2,1.3C501.4,222.4,501.9,223,502.2,223.8z"/>
			<path class="st1" d="M495,116v2.3h-47c0,9.6,4.5,14.4,13.6,14.4c4.9,0,8.5-2,11-5.9h21.6c-4.4,14.5-15.3,21.7-32.7,21.7
				c-5.4,0-10.2-0.8-14.7-2.4c-4.4-1.6-8.2-3.9-11.4-6.9c-3.2-3-5.6-6.5-7.3-10.6c-1.7-4.1-2.6-8.7-2.6-13.8c0-5.3,0.8-10,2.5-14.3
				c1.6-4.2,4-7.8,7-10.8c3-3,6.7-5.2,11-6.8c4.3-1.6,9.2-2.4,14.6-2.4c5.3,0,10.2,0.8,14.4,2.4c4.3,1.6,7.9,3.9,10.9,7
				c3,3,5.2,6.8,6.8,11.2C494.2,105.6,495,110.5,495,116z M448.6,105.4h25.5c-0.7-3.1-2.3-5.6-4.6-7.5c-2.3-1.9-5.1-2.8-8.4-2.8
				c-3.5,0-6.3,0.9-8.5,2.7C450.6,99.6,449.2,102.1,448.6,105.4z"/>
			<path d="M478.1,437.6c0.5,5,0,11.8-1.4,17c-1.6,6.3-9.1,22.7-14.3,31.1c-5.7,9.1-15.6,22.6-21.6,29.3c-4.8,5.3-15,15.6-20.8,20.9
				c-5.3,4.8-26.5,21.5-30.2,23.8c-1.3,0.8-4.8,3-7.8,5c-11.3,7.5-21.5,12-40.5,18.2c-9.5,3-12.6,3.9-18.8,4.9
				c-17.5,2.8-29.9,1.5-42.3-4.5c-11.9-5.8-20.1-15.5-24.7-29.4c-2.1-6.3-2.8-10.9-3-19.4c-0.3-11.2,1.1-21.2,4.7-34
				c3.3-11.6,6.8-20.7,14.7-37.4c1.2-2.5,2-4.6,1.7-4.6c-0.2,0-5.5,2.5-11.8,5.5c-12.3,6-16.2,7.5-19.2,7.5c-4.8,0-8.1-3.7-7.5-8.1
				c0.6-3.5,3.8-6.6,12-11.6c6.1-3.6,22.7-12.1,34.6-17.6c4.2-2,8-3.8,8.4-4c0.4-0.2,2.7-3.4,5.1-7.1c2.5-3.7,5.4-7.9,6.4-9.3
				c1-1.4,1.7-2.6,1.5-2.7c-0.2-0.1-1.6,0.3-3.1,0.9c-1.5,0.6-4.4,1.5-6.6,2.1c-3.6,1-4.7,1.1-10.9,1.1c-8.1,0-10.8-0.5-16.8-3.6
				c-6.5-3.3-12.4-10.1-15.3-17.6c-2.8-7.2-3.6-17.5-2.2-27.2c1.9-12.8,7.6-30.3,14.3-43.7c4.7-9.4,6.7-12.2,10.1-13.9
				c6.2-3.1,12.9,1.3,12.9,8.5c0,2-1.1,6.1-4.2,16c-2.7,8.5-5.4,19.2-6.3,24.4c-2.1,12.1-1.4,23.8,1.5,27.2c0.9,1,1.2,1.1,4.2,1.3
				c9,0.4,20.4-3.8,34.4-12.6c15-9.5,27.4-19.5,42.2-34.2c16.4-16.3,31.4-33.9,36.9-43.1c3-5.1,5.7-8,8.7-9.7
				c3.1-1.7,4.8-2.1,8.2-1.9c2.1,0.1,3.5,0.4,5.4,1.3c3,1.4,5.5,3.9,7,6.9c0.9,1.9,1.1,2.6,1.1,6.3c0,4.1,0,4.3-1.5,7.3
				c-1.3,2.6-2.3,3.9-6.7,8.3c-2.9,2.9-8.8,9.3-13.3,14.3c-4.9,5.5-15.5,16.5-26.8,27.7c-12.9,12.9-20.4,20.7-24.3,25.3
				c-8.3,9.9-25.4,32.7-24.9,33.2c0.1,0.1,4.1-1.2,8.9-2.8c28.6-9.7,55.2-14.9,78.3-15.5c13.3-0.4,23.8,0.8,31.4,3.3
				C465,406.8,476.3,419.9,478.1,437.6z M444.8,456.1c0.8-3.2,1-8.4,0.5-11.1c-0.6-3.4-2.1-5.9-5-8.7c-2.8-2.6-4.7-3.8-10.4-6.2
				c-8.4-3.6-16-4.9-29.5-5.1c-5-0.1-9.8,0-10.7,0c-0.9,0.1-3.5,0.4-5.9,0.5c-21.1,2-51.1,9-70.3,16.3l-3,1.1l-1.8,3.3
				c-12,21.5-21.5,47.7-24.5,67.8c-1,6.8-1.4,17.6-0.8,22.4c0.6,4.2,2.3,9.9,3.7,12.1c1.5,2.3,4.2,4.8,6.4,5.9
				c4.4,2.2,12.4,2.8,19.6,1.5c4.7-0.8,14.7-3.7,19.7-5.7c5.4-2.2,16-7.3,22.3-10.9c3-1.7,5.5-3,5.7-3c1,0,14.6-8.4,19.4-12
				c6.7-5,22.2-17.5,28.1-22.7c5.8-5,19.3-18.5,22.9-22.8C437.3,471.8,443.7,461,444.8,456.1z"/>
			<path class="st0" d="M474.5,222.5V240h-9.7v-13.9c0-1.4-0.1-2.5-0.3-3.3c-0.2-0.8-0.5-1.5-1-2c-0.4-0.4-0.9-0.7-1.5-0.9
				c-0.5-0.2-1.1-0.3-1.7-0.3c-1.6,0-2.9,0.5-3.8,1.5c-0.9,1-1.3,2.4-1.3,4.2V240h-9.7v-27.6h9.7v3.5c1.3-1.6,2.7-2.7,4-3.2
				c1.4-0.6,3-0.8,4.8-0.8c1.9,0,3.6,0.3,5,0.9c1.4,0.6,2.6,1.5,3.5,2.7c0.8,0.9,1.3,2,1.6,3.1C474.3,219.7,474.5,221,474.5,222.5z"
				/>
			<path class="st0" d="M474.2,105.4h-25.5c0.6-3.3,2-5.8,4.1-7.7c2.2-1.8,5-2.7,8.5-2.7c3.3,0,6.1,0.9,8.4,2.8
				C471.9,99.8,473.4,102.3,474.2,105.4z"/>
			<path class="st1" d="M445.3,445c0.5,2.7,0.3,7.8-0.5,11.1c-1.1,4.9-7.5,15.7-13.6,22.9c-3.6,4.3-17.1,17.8-22.9,22.8
				c-5.9,5.2-21.5,17.7-28.1,22.7c-4.8,3.6-18.4,12-19.4,12c-0.2,0-2.7,1.4-5.7,3c-6.4,3.6-16.9,8.7-22.3,10.9
				c-4.9,2-15,4.9-19.7,5.7c-7.3,1.2-15.2,0.6-19.6-1.5c-2.2-1.1-4.9-3.6-6.4-5.9c-1.4-2.2-3.2-7.9-3.7-12.1
				c-0.6-4.8-0.2-15.7,0.8-22.4c3-20,12.5-46.2,24.5-67.8l1.8-3.3l3-1.1c19.2-7.3,49.2-14.3,70.3-16.3c2.4-0.2,5.1-0.5,5.9-0.5
				c0.9-0.1,5.7-0.1,10.7,0c13.6,0.2,21.1,1.5,29.5,5.1c5.7,2.4,7.6,3.6,10.4,6.2C443.2,439.1,444.6,441.5,445.3,445z M397.7,458.6
				c0.1-2.1,0-2.8-0.9-4.7c-1.3-2.6-3.4-4.3-6.2-4.9c-2.3-0.5-2.3-0.5-4.5,0c-3.6,0.8-6.5,2.9-15.7,10.7
				c-6.8,5.8-14.2,11.6-14.9,11.4c-0.3-0.1-2.6-2.6-5.2-5.7c-5.6-6.6-7.6-8.5-10.5-9.9c-6.1-3-12.7-0.5-14.5,5.6
				c-1.4,4.8,0.2,8.8,7.3,18.1c2.5,3.2,4.3,6,4.2,6.2c-0.1,0.2-4,3.5-8.6,7.2c-12.7,10.5-16,14.3-16.4,19.1
				c-0.2,3.1,0.5,5.3,2.6,7.3c3.8,3.8,8.5,3.7,15.1-0.2c1.6-1,6.7-4.7,11.2-8.3c4.6-3.6,8.5-6.6,8.7-6.6c0.2,0,1.3,1.1,2.4,2.4
				c2.5,3,4.6,4.8,7.6,6.2c1.9,0.9,2.9,1.1,5.5,1.1c3.8,0,6.2-1,8.7-3.5c2.6-2.5,3.5-4.9,3.5-8.9c0-3.1-0.1-3.6-1.4-6.3
				c-0.8-1.6-2.4-4.2-3.6-5.7c-1.2-1.5-2.1-3-1.9-3.2c0.4-0.7,7.9-6.9,14.3-11.7c6.7-5.1,10.6-8.9,11.9-11.4
				C397.1,461.8,397.6,460,397.7,458.6z"/>
			<polygon class="st0" points="423.7,212.4 401.6,253.8 390.7,253.8 400.1,236.2 386.7,212.4 398,212.4 405.4,226.6 412.6,212.4 
							"/>
			<path class="st1" d="M412.7,106v40.2h-22.3v-32c0-3.2-0.2-5.8-0.7-7.8c-0.5-2-1.3-3.5-2.5-4.6c-2-1.7-4.4-2.6-7.2-2.6
				c-3.8,0-6.7,1.1-8.7,3.4c-2,2.3-3,5.5-3,9.7v33.8H346V43.8h22.3V91c3-3.7,6.1-6.2,9.3-7.5c3.1-1.3,6.8-1.9,11-1.9
				c8,0,14,2.2,18.1,6.6C410.7,92.6,412.7,98.5,412.7,106z"/>
			<path d="M396.8,453.9c0.9,1.9,1.1,2.5,0.9,4.7c-0.1,1.5-0.6,3.2-1.1,4.2c-1.3,2.5-5.2,6.3-11.9,11.4c-6.4,4.9-13.9,11-14.3,11.7
				c-0.1,0.2,0.7,1.7,1.9,3.2c1.2,1.5,2.8,4.1,3.6,5.7c1.3,2.7,1.5,3.2,1.4,6.3c0,4-1,6.4-3.5,8.9c-2.5,2.5-4.9,3.5-8.7,3.5
				c-2.6,0-3.6-0.2-5.5-1.1c-3-1.4-5.1-3.2-7.6-6.2c-1.1-1.3-2.1-2.4-2.4-2.4c-0.2,0-4.2,3-8.7,6.6c-4.6,3.6-9.6,7.4-11.2,8.3
				c-6.5,3.9-11.2,3.9-15.1,0.2c-2.1-2.1-2.9-4.2-2.6-7.3c0.4-4.8,3.7-8.6,16.4-19.1c4.6-3.8,8.5-7,8.6-7.2c0.1-0.2-1.8-3-4.2-6.2
				c-7.1-9.3-8.7-13.3-7.3-18.1c1.8-6.1,8.4-8.7,14.5-5.6c2.8,1.4,4.8,3.4,10.5,9.9c2.6,3,4.9,5.6,5.2,5.7c0.6,0.2,8-5.6,14.9-11.4
				c9.1-7.8,12.1-9.8,15.7-10.7c2.1-0.5,2.2-0.5,4.5,0C393.4,449.6,395.5,451.2,396.8,453.9z"/>
			<path class="st0" d="M384.4,222.1V240h-9.7v-13.6c0-1.4-0.1-2.6-0.3-3.4c-0.2-0.9-0.5-1.6-0.9-2.1c-0.4-0.5-0.8-0.8-1.3-1
				c-0.5-0.2-1-0.3-1.6-0.3c-3.1,0-4.7,2.3-4.7,6.8V240h-9.7v-13.6c0-1.4-0.1-2.6-0.3-3.5c-0.2-0.9-0.4-1.6-0.8-2.2
				c-0.3-0.5-0.8-0.9-1.3-1.1c-0.5-0.2-1.2-0.3-1.9-0.3c-0.6,0-1.2,0.1-1.7,0.3c-0.5,0.2-1,0.5-1.4,1c-0.4,0.5-0.7,1.2-1,2.2
				c-0.2,0.9-0.3,2.1-0.3,3.6V240h-9.7v-27.6h9.7v3.4c2.7-2.5,5.6-3.8,8.9-3.8c4.1,0,7.2,1.7,9.4,5.2c2.2-3.5,5.3-5.2,9.4-5.2
				c1.3,0,2.5,0.2,3.7,0.6c1.1,0.4,2.1,1,2.9,1.8c0.8,0.8,1.5,1.9,2,3.1C384.1,218.7,384.4,220.3,384.4,222.1z"/>
		</g>
		<g>
		</g>
	</g>
</g>
<g>
	<g>
		<path class="st2" d="M290.5-428.2l913.8,73c20.9,1.7,39.2-13.9,40.9-34.9l45.2-565.7c1.7-20.9-13.9-39.2-34.9-40.9l-913.8-73
			c-20.9-1.7-39.2,13.9-40.9,34.9l-45.2,565.7C253.9-448.2,269.5-429.9,290.5-428.2z"/>
		<path class="st1" d="M303.2-458.9l893.4,71.4c10.5,0.8,19.8-7,20.6-17.6l32.1-401.4c0.8-10.5-7-19.8-17.6-20.6l-893.4-71.4
			c-10.5-0.8-19.8,7-20.6,17.6l-32.1,401.4C284.8-469,292.6-459.8,303.2-458.9z"/>
		
			<text transform="matrix(0.9968 7.964877e-02 -7.964877e-02 0.9968 626.0334 -903.4692)" class="st1" style="font-family:'Futura-Bold'; font-size:123.392px;">hello</text>
		
			<text transform="matrix(0.9968 7.964877e-02 -7.964877e-02 0.9968 614.6231 -810.3116)" class="st2" style="font-family:'Futura-Bold'; font-size:53.7853px;">my name is</text>
		<g transform="translate(0.000000,2048.000000) scale(0.100000,-0.100000)">
			<g id="XMLID_00000132062413671170517670000000037908219643696811_">
				<g>
					<path d="M7025.2,27587.1c-1.2,37.3,17.8,69.5,48.6,80.4c46.6,16.6,88-11.2,120.3-81.7c8.8-19.1,32.5-68.1,52.6-108.9
						c20.5-40.7,42.6-86.2,49.1-100.9c10.2-21.5,13.6-26,18.1-22.9c9.3,6.6,61,72.6,140,179.3c88.5,119,261.2,342.4,327.4,423
						c25.1,30.6,53,68.2,62.2,83.2c21.6,35.4,58.7,67.4,88.5,76.5c17.7,5.5,27.7,6.2,55.8,2.8c29.3-3.1,37.1-5.6,53.5-16.5
						c59.7-38.9,75.8-116.1,38.1-180.1c-6.2-10.2-24.3-31-40.1-45.8c-15.7-14.5-46-48.1-67.7-74.3
						c-68.7-83.4-273.6-311.6-410.2-456.7c-20.9-22.5-61-67.6-88.9-100.2c-27.5-32.7-62.1-71.7-76.3-87
						c-14.3-15.3-31.3-37-37.5-47.6c-13.4-23.8-44.5-48.5-66.3-53.3c-37.8-8.1-80,6.8-99.9,35.2c-33.3,48.7-68.5,140.4-112.5,295.3
						c-8.4,29-23.8,81.2-34.8,115.9C7034.4,27538.9,7025.8,27574.8,7025.2,27587.1z"/>
					<path d="M5727.1,25817.7c-19.7,22.2-25.5,44.1-20.6,75.1c7.8,47.4,44,83.1,179,177.1c49.2,33.8,90.5,63.5,91.8,65.3
						c1.3,1.9-15,31-36.9,64.9c-63.6,98.4-76.2,139.5-58.6,186.6c22.6,59.4,90.6,79.7,148.5,44.5c26.9-16.4,45.5-37.4,96.3-107.4
						c23.6-32.5,44.9-59.6,47.6-60.6c5.8-2.1,84.6,49.2,157.1,101.8c97.4,70.5,128.6,88.2,164.8,93.7c21.7,3,22.5,3,44.6-3.6
						c27.5-8.2,46.7-26.4,57.7-53.9c8-19.7,8.6-26.1,5.4-47.3c-2.4-14.5-8.5-31.5-14.4-41.3c-14.6-24.2-57.1-58.6-127.9-104.2
						c-67.8-43.4-146.9-98.7-151.8-105.4c-1.4-2.3,5.7-17.5,16.8-33.5c10.6-16.3,24.7-43.3,31.3-60.1c11.2-28.3,12-33.5,9.2-64.3
						c-3.2-39.5-14.5-62.8-42.2-86c-26.9-23.3-52.1-31.2-89.6-28.2c-26.4,2.1-35.4,4.4-54,15c-28.5,16.2-48.8,35.7-70.8,68
						c-9.6,13.9-19.4,25.4-21.8,25.6c-2.4,0.2-43.8-26.3-92.1-58.6c-48.3-32.3-101.8-65.7-118.7-73.9
						C5809.4,25773.8,5762.4,25777.2,5727.1,25817.7z"/>
					<path d="M10103.2,25493.9c7.7-33.2,6.9-58.1-1.8-87.6c-10.5-36.9-27.8-64.1-54.6-86.6c-65.5-53.9-156.7-53-224.9,3.3
						c-34.3,28.2-51.3,58.5-92.6,163.1c-20.8,52.9-53.8,136.9-73.7,186.6c-55.7,138.3-123.7,380.8-142.1,507.4
						c-3.5,21.3-7.2,38.7-9.2,38.9c-1.6,0.1-6.7-9.8-11.3-21.7c-32.5-89.1-176-413.7-216.3-489.9c-13.1-24.4-73.9-119.2-110.2-171.9
						c-15.7-22.6-51.8-52.3-75.3-62.3c-85.8-35.2-179,1.2-225.3,88.3c-26.6,50.2-36.2,103.8-39.4,223.2c-1,42.6-4,138.5-6.8,213
						c-8.6,235.4-12.9,598.7-8.6,737.4c1.1,49.2,2.6,107,2.8,128.9l0.4,39.7l-8.2-12.8c-7.7-12.1-42.3-82.4-108-218.1
						c-15.7-32.5-42.7-91.9-59.8-132.2c-17.5-39.9-43.6-97.8-57.9-128.4c-14.8-30.6-32-67.3-38.7-81.5c-19.7-42.5-51.4-72.1-94-87.4
						c-27.8-10.1-86.6-5.8-112.1,8.6c-44.5,25-68.4,59.1-81,114.9c-4.1,18.6-13.6,53.9-21.2,77.9c-7.6,24-18.6,69.8-25.3,101.3
						c-11,55.7-48.4,278.7-68.7,413c-5.8,36.2-11.8,65.7-14.2,66.3c-9.1,0.7-200-464.6-293.4-714.1c-14.2-38.2-35.7-93.7-47.6-123.3
						c-11.9-29.6-38.3-97-58.9-150.2c-118-303.9-149.9-379.6-184.8-438.4c-47.6-79.2-98.7-116.8-153.9-112.4
						c-34.7,2.8-57.7,13.7-78.3,38.4c-40.3,47.3-41.3,119.3-2.5,237.3c12,36,176.7,426.7,346.4,821
						c36.5,84.5,82.2,193.6,101.6,242.1c19.4,48.9,45.1,112,56.9,140.4c33,79.6,108.8,277.7,140.6,367.6
						c15.9,44.4,40.6,110.3,55.4,146.5c14.4,36.2,32.4,82.8,39.6,103.3c15.9,45.2,30.7,71,54.7,92.9c43.3,40.2,106.2,51.5,158,28.7
						c61.4-27.1,93.7-84.9,121.4-215.4c8.4-39.2,40.8-219.7,98.6-546c4.7-26.2,10.1-47.7,11.7-47.8c6.3-0.5,27.1,41.5,145.3,292.2
						c28.7,61.2,75.5,154.8,103.6,208.2c29,54.5,56.2,112.3,62.9,131.6c6.2,18.6,16.5,42.8,22.9,53.4c17.8,28.4,49.7,55.6,79.6,66.3
						c22.1,8.2,30.1,9.1,62.9,6.5c32.4-2.6,40.5-4.8,59.1-15.4c39.5-22.2,67-66.5,72.9-116.2c5.4-46.5,12.3-149.5,15.8-229.6
						c2.6-57.4,8.7-120.2,19.8-200.2c20.2-144.6,42.9-403,51.8-589.9c9.4-185.8,8-173.4,14.8-167.6
						c18.4,16.4,244.4,504.3,295.7,639.2c8.5,22,21.5,49.9,28.8,61.6c35.7,59.1,109.2,89.8,173.4,73.1c64.2-17,111-72.4,118.6-140.9
						c2-14.5-1.4-61.8-9.2-139.9c-11.9-114.6-17.6-234.9-15.4-316.5c1.8-61.7,13.3-181.4,23.1-237.8c5.2-29.4,12.8-78.5,17.1-108.6
						c7.5-50.2,23.2-127.7,41.4-202.3c11.5-45.4,64.4-197.8,80.8-231.2c21.8-45.4,40.9-74.4,82.9-125.4
						C10079,25558.2,10095.3,25529,10103.2,25493.9z"/>
					<path d="M9936.4,25136.3c115-51.7,139.6-196.2,47.6-279.4c-40.2-36.5-85.3-49.2-143.9-41.3c-19.7,2.4-113.4,12.6-207.5,22.5
						c-195.4,20-232.8,24.2-422.9,50.1c-75.4,10.4-195.8,25.2-267.4,33.3c-71.2,8.1-164.4,19.9-206.4,26.4
						c-122.8,18.9-198.6,29.4-316.3,43.1c-60.6,7.2-166.7,20.9-235.8,30.8c-69.1,9.9-200.7,27.6-292.7,39.3
						c-92,11.7-213,28.5-269.1,37.4c-127.9,20.1-274.8,40.6-396.7,55.5c-106.2,12.9-125.2,18.3-148.4,41.6
						c-39.4,39.3-28.2,104.7,22.2,128.9c26.8,12.9,59.5,13.5,211.4,1.4c76.2-5.7,179.3-12.3,229.2-14.3
						c277.5-10.7,1571.2-97.8,1965.2-132.4c135.7-11.6,261.5-22.9,280-24.4c18.5-1.5,54.9-4,81-5.7
						C9906.3,25147,9916.9,25145,9936.4,25136.3z"/>
					<path d="M10081.2,27558.8c-4.3-48.5-14.8-81.4-41.5-127.3c-17-29.2-26.7-40.8-53.5-63.2c-38.3-32.3-66.5-47.1-115.2-59.9
						c-32.8-8.5-40-9.1-85-5.5c-58.4,4.7-85.5,13.2-129.8,40.9c-35.9,22.3-86.7,78.4-103.3,114.3c-27.1,59-33.1,127.7-16,187.9
						c30.6,109.9,124.6,187.4,242.9,201.4c34,3.6,93.1-2.7,126-14c12.7-4.6,37.6-16.9,55-27
						C10043,27757.6,10089.4,27661.4,10081.2,27558.8z"/>
					<path d="M7422.2,26498.8c1.1-50.5-9.8-117.6-27.4-168.6c-20.8-61.5-109.2-218.8-167.6-298.4
						c-63.7-86.6-173.1-212.9-238.8-275.2c-51.6-49.5-162.4-143.9-224.2-191.4c-56.7-43.9-281.6-193.6-320.5-213.5
						c-13.3-6.9-49.8-26.6-81.4-43.9c-118.8-65.6-223.5-102.9-417.8-149.3c-96.7-22.8-129-28.6-191.7-33.5
						c-177.1-14.4-299.2,8.4-418.3,78.7c-114.2,67.1-188.1,171.1-222.8,313.3c-15.9,64.4-19.4,110.4-14.9,196.2
						c5.7,111.5,27.6,210.7,73.7,335.3c42,113,84.8,200.9,176.6,360.8c14.3,24.3,23.8,44.6,21.1,44.8c-2.4,0.2-57.2-20.4-122.4-45.8
						c-127.1-49.8-167.8-62.1-197.4-59.7c-47.7,4.2-78,43.2-68.1,86.9c8.3,34.3,43.2,63.3,128.8,106.1
						c63.3,31.5,235.8,103.1,358.6,148.5c43.8,16.4,82.7,31.5,86.5,33.2c3.7,2.1,29.2,32.2,57,66.9c27.8,35.1,59.9,74.2,71.3,87.6
						c11.4,13.4,19,24.7,16.7,25.7c-1.9,0.9-16.4-1.9-31.5-6.2s-45.4-11.5-67.6-15.6c-36.3-6.6-47.4-6.9-109.4-2
						c-80.9,6.1-106.9,13.7-164.4,49.7c-62.5,38.4-115.1,110.1-138.3,187.8c-22.3,73.7-22.4,177.3,0,272.8
						c29.2,126.3,100.3,296.2,177.7,424.3c54.5,90.2,76.8,116.2,112.1,130c64,25.9,128-23.7,122.3-95.2
						c-1.6-20.1-15.5-60.3-54.2-156.1c-33.6-82.7-69.3-186.7-82.1-237.7c-30.2-119.5-32.8-236.5-6.7-272.3c7.9-10.6,11.4-12,41.2-16
						c89.3-11.1,205.8,21.3,353,98.5c157.5,82.7,289,172.7,447.9,307.7c176,149.6,340.3,312.8,402.1,400.4
						c34.5,48.9,62.8,75.6,94.5,89.4c32.1,14.1,49.8,16.7,83.6,12.4c21.2-2.5,34-6.7,52.2-17.3c29.3-16.6,52.2-43.1,64.4-73.9
						c7.9-20.1,8.6-26.9,5.6-64c-3.2-40.6-3.8-42.6-21.2-71.4c-15.1-25.4-26-37.2-73.7-77.5c-30.7-26.1-95.4-85.3-143.6-131.9
						c-52.9-51-167.8-152.2-288.8-254.9c-138.9-118-219.7-189.8-262.5-233.2c-90.3-91.7-279.4-306.1-274.7-311.7
						c0.7-0.9,41.6,8.6,91,20.5c293,73.5,562.4,104.8,792.9,92.3c132.9-7,236.2-26.4,310.3-57.8
						C7315.7,26816.7,7418.2,26677.4,7422.2,26498.8z M7075.2,26341.5c10.1,31.8,16.2,82.9,13.6,110.1
						c-3.6,34.8-15.8,60.8-42.8,90.4c-25.9,28.7-43.9,41.6-98.8,70.2c-80.8,42.6-155.1,61.6-290.3,74.4
						c-49.7,4.8-97.8,8.2-106.6,8.1c-8.7-0.1-35.4-0.7-59.6-0.8c-212.3-3.3-516.6-48.5-713.8-106.2l-30.5-9.1l-20.8-31.3
						c-136.7-205.1-251.9-458.8-298.3-656.1c-15.7-66.7-28.3-174.9-25.8-223.1c2.2-41.9,15.4-100.1,27.5-123.3
						c12.8-24.1,38-51.1,59.3-63.5c42.1-25.2,120.9-37.5,194.5-31c47.6,4.1,149.7,25,200.6,40.8c55.8,17.4,164.8,59.9,231.2,90.3
						c30.9,14.2,57.3,26,58.9,25.9c9.9-0.8,152.7,72,202.9,104.1c70.7,44.4,235.3,156.7,298.6,203.7
						c61.6,45.1,207.3,168.9,246.6,208.7C6987.7,26191.2,7059.8,26293.4,7075.2,26341.5z"/>
				</g>
			</g>
		</g>
	</g>
	<g>
		<path class="st3" d="M393.2-333.9l910.3-108.4c20.8-2.5,35.7-21.4,33.2-42.2l-67.1-563.5c-2.5-20.8-21.4-35.7-42.2-33.2L317-973
			c-20.8,2.5-35.7,21.4-33.2,42.2l67.1,563.5C353.4-346.3,372.3-331.5,393.2-333.9z"/>
		<path class="st1" d="M399.6-366.6l890-106c10.5-1.3,18-10.8,16.7-21.3l-47.6-399.9c-1.3-10.5-10.8-18-21.3-16.7l-890,106
			c-10.5,1.3-18,10.8-16.7,21.3l47.6,399.9C379.5-372.8,389.1-365.3,399.6-366.6z"/>
		
			<text transform="matrix(0.993 -0.1183 0.1183 0.993 628.5355 -866.0266)" class="st1" style="font-family:'Futura-Bold'; font-size:123.392px;">hello</text>
		
			<text transform="matrix(0.993 -0.1183 0.1183 0.993 635.6987 -772.4465)" class="st3" style="font-family:'Futura-Bold'; font-size:53.7853px;">my name is</text>
		<g transform="translate(0.000000,2048.000000) scale(0.100000,-0.100000)">
			<g id="XMLID_00000121251655469449193470000017640390523046814395_">
				<g>
					<path d="M7414.9,27401.1c-8.5,36.3,3.8,71.6,31.8,88.4c42.4,25.5,88.5,6.3,134.1-56.4c12.4-17,45.3-60.4,73-96.4
						c28.1-35.9,58.7-76.1,68-89.2c14.2-19.1,18.5-22.8,22.3-18.9c7.9,8.3,45.5,83.2,102,203.4c63.3,134.1,188.6,387.2,237.6,479.2
						c18.6,34.9,38.5,77.3,44.6,93.8c14.2,39,44.3,77.6,71.7,92.4c16.3,8.9,25.9,11.5,54.2,13.8c29.3,2.7,37.5,1.8,55.7-5.6
						c66.2-26.4,97.2-98.9,72.8-169.1c-4-11.2-17.7-35.2-30.3-52.8c-12.6-17.3-35.6-56.2-51.7-86.2
						c-51-95.3-206.9-359.4-312.2-528.5c-16.1-26.2-46.5-78.3-67.4-115.8c-20.5-37.4-46.7-82.5-57.7-100.4
						c-11-17.8-23.4-42.4-27.4-54.1c-8.4-26-34.1-56.4-54.5-65.3c-35.5-15.4-79.7-9.1-104.9,14.8c-42.3,41.1-94.8,124.1-168.4,267.3
						c-14,26.8-39.3,74.9-57,106.7C7433.4,27355.6,7417.9,27389.2,7414.9,27401.1z"/>
					<path d="M6490.8,25410.7c-23.7,17.9-33.7,38.3-35,69.6c-1.7,48,26.7,90.1,140.6,208.9c41.5,42.8,76.2,80,77.1,82.1
						c0.9,2.1-20.8,27.4-49,56.4c-81.8,84-102.2,121.8-94.2,171.4c10.5,62.6,73.1,96,136.8,72.9c29.6-10.8,51.9-27.7,115.5-86.3
						c29.6-27.2,55.7-49.6,58.6-50c6.1-0.9,73.2,64.9,133.9,130.8c81.6,88.3,108.7,111.8,143.1,124.3c20.7,7.2,21.5,7.3,44.4,5.3
						c28.6-2.6,51-16.6,67.1-41.4c11.7-17.7,13.6-23.9,14.6-45.3c0.6-14.7-2.1-32.5-6-43.4c-9.6-26.7-44.4-68.7-104.8-127.3
						c-57.9-55.9-124.6-125.7-128.1-133.3c-0.9-2.5,9.1-16.1,23.1-29.5c13.6-13.9,32.8-37.6,42.6-52.7
						c16.6-25.5,18.4-30.5,21.6-61.2c4.7-39.3-1.9-64.4-24.5-92.6c-21.8-28.1-45-40.8-82.3-45.3c-26.3-3.1-35.6-2.6-55.9,4.1
						c-31.1,10.2-54.8,25.4-82.8,52.7c-12.2,11.7-24,21.1-26.4,20.8c-2.4-0.3-37.8-34.4-78.7-75.6c-40.9-41.2-86.8-84.5-101.8-95.8
						C6580.1,25383.8,6533.4,25377.9,6490.8,25410.7z"/>
					<path d="M10845,25955.2c14.1-31,18.2-55.6,15.5-86.3c-3-38.2-14.6-68.3-36.5-95.6c-53.6-65.8-143.2-82.8-221.2-41.1
						c-39.2,20.9-61.8,47.3-122.9,141.6c-30.8,47.8-79.7,123.7-109,168.4c-81.8,124.6-196.3,349-239.3,469.5
						c-7.6,20.2-14.7,36.5-16.7,36.3c-1.6-0.2-4.7-10.9-6.8-23.5c-14.3-93.8-91.1-440.2-115.5-522.9c-8-26.5-48.9-131.4-74.2-190.2
						c-11-25.2-40.5-61.4-61.5-75.9c-77.2-51.5-175.7-34.1-238.3,42.2c-35.9,44-55.9,94.6-82.5,211c-9.3,41.5-31.2,135-48.6,207.5
						c-54.8,229.1-130.6,584.5-153.7,721.3c-8.6,48.4-18.5,105.4-22.7,126.9l-7.4,39l-5.5-14.2c-5.2-13.4-25.3-89.1-62.9-235.1
						c-9-35-23.7-98.5-32.6-141.4c-9.3-42.6-23.4-104.5-31.5-137.3c-8.4-32.9-18.1-72.3-21.9-87.5c-10.9-45.6-36.2-80.9-74.9-104.2
						c-25.3-15.4-83.8-22.7-111.6-13.7c-48.5,15.8-78.7,44.5-102,96.7c-7.7,17.4-23.9,50.2-36.1,72.2c-12.2,22.1-32,64.8-44.7,94.3
						c-21.8,52.4-102.4,263.7-148.7,391.3c-12.9,34.3-24.5,62.1-26.9,62.2c-9-1.1-104.5-494.9-147-757.9
						c-6.4-40.2-16.5-98.8-22.4-130.2c-5.8-31.4-18.5-102.7-28.1-158.8c-55.8-321.2-72.2-401.7-94.8-466.2
						c-31.1-87-73.7-134-128.8-140.5c-34.6-4.1-59.3,2.1-84.4,22.2c-48.8,38.4-64,108.8-49.2,232.2c4.7,37.6,89.2,453.2,177.9,873.2
						c19.2,90,42.4,206,51.9,257.3c9.4,51.8,22.1,118.7,28.1,148.9c16.6,84.5,51.9,293.6,65.4,388.1c6.8,46.7,18.1,116.2,25.5,154.5
						c7,38.3,15.5,87.6,18.5,109.1c6.7,47.4,16.1,75.7,35.3,101.9c34.6,48,94,71.4,149.2,59.2c65.5-14.5,108.6-64.8,161.4-187.3
						c15.9-36.8,83.3-207.4,204.2-515.9c9.7-24.8,19.3-44.7,20.9-44.6c6.3,0.7,18.4,46.1,84.9,315.1
						c16.1,65.7,43.5,166.7,60.6,224.5c17.7,59.1,33,121.1,35.8,141.4c2.5,19.4,7.8,45.2,12,56.8c11.8,31.3,37.8,64.3,64.9,80.7
						c20.1,12.4,27.7,14.9,60.4,18.8c32.2,3.8,40.7,3.2,61-3.5c43.1-14,78.8-52,94.4-99.6c14.5-44.5,41.5-144.2,60.7-222
						c13.8-55.8,32.2-116.2,58.8-192.3c48.3-137.8,121.4-386.6,166.9-568.2c45.8-180.3,42-168.4,47.5-161.4
						c14.8,19.7,140.3,542.6,164,684.9c4,23.2,11.2,53.2,16,66.1c23.4,65,89.4,109.5,155.6,105.8c66.3-4.1,123.1-49.1,144-114.8
						c4.8-13.8,10.8-60.9,18.5-138.9c10.9-114.7,29-233.8,47.3-313.3c13.9-60.1,48.8-175.2,69.5-228.5c10.9-27.8,28-74.4,38.2-103.1
						c17.3-47.8,47.9-120.7,80.5-190.2c20.2-42.2,102.1-181.2,124.8-210.8c30.3-40.2,54.8-64.8,106-106.6
						C10808.5,26013.4,10830.3,25988.1,10845,25955.2z"/>
					<path d="M10751.9,25571.7c122.9-28,175.5-164.9,101.7-264.6c-32.3-43.7-74-65-132.9-68.9c-19.7-1.6-113.6-9.9-207.9-18.8
						c-195.5-18.9-233-22.2-424.5-34.2c-76-4.7-196.9-13.9-268.7-20c-71.4-6.1-165.1-12.9-207.6-14.8
						c-124.1-5.6-200.5-10.3-318.6-20c-60.8-4.9-167.6-12.4-237.3-16.3c-69.7-3.9-202.2-12.5-294.7-19.2
						c-92.5-6.6-214.4-14-271.2-16.3c-129.3-5.4-277.4-14.3-399.8-23.7c-106.7-8.3-126.4-6.7-153.7,11.6
						c-46.3,30.8-48.2,97.1-3.6,130.7c23.8,18,55.6,25,207,43c75.8,9.4,178.2,23.2,227.5,31.1c274.2,44.2,1559.7,213.7,1952.8,257.3
						c135.3,15.3,260.9,29.1,279.3,31.3c18.5,2.2,54.6,6.9,80.5,10.4C10720.3,25576.3,10731,25576.4,10751.9,25571.7z"/>
					<path d="M10416.6,27975.3c5.4-48.4,1.5-82.8-15.7-133c-10.9-32-18.1-45.2-40-72.5c-31.2-39.2-55.9-59.3-101.1-81.4
						c-30.5-14.8-37.5-16.8-82.3-22.2c-58.2-6.9-86.4-3.9-135.3,14.6c-39.6,14.8-100.4,59.8-123.8,91.7
						c-38.1,52.5-57.6,118.7-52.7,181.1c8.4,113.8,85.2,208.3,198.4,245.3c32.7,10.3,91.8,15.7,126.3,11.1
						c13.4-2,40.2-9.2,59.3-15.7C10340.1,28162.8,10404.4,28077.5,10416.6,27975.3z"/>
					<path d="M8018.5,26412.3c11.1-49.3,13.6-117.2,6.4-170.7c-8.3-64.4-64-236.1-105.6-325.5c-45.4-97.5-127.8-242.9-179.9-316.9
						c-40.9-58.7-130.9-173.1-182.1-231.8c-47-54.2-237.9-245.2-272.1-272.4c-11.6-9.4-43.6-35.9-71.1-59.1
						c-103.6-87.7-198.8-144.9-380.2-228.7c-90.3-41.5-120.8-53.5-181.4-70.6c-170.8-49-295-50.7-425.6-5.2
						c-125.2,43.3-218.1,130.7-280.1,263.3c-28.3,60-40.7,104.4-53.3,189.4c-16.3,110.5-14.5,212,6.2,343.2
						c18.9,119.1,43.5,213.7,102,388.5c9.2,26.6,14.6,48.4,11.8,48.1c-2.4-0.3-52.1-31.3-111-69c-114.8-73.9-152.3-93.9-181.8-97.4
						c-47.6-5.3-84.9,27-83.9,71.7c1.4,35.2,29.9,70.5,105.4,129.4c55.8,43.3,210.9,147.5,322.3,216.2
						c39.7,24.7,74.9,47.2,78.2,49.6c3.3,2.8,22.3,37.3,42.7,76.8c20.4,39.9,44.1,84.6,52.7,100s13.8,28,11.4,28.5
						c-2.1,0.6-15.7-5.1-29.6-12.3c-13.9-7.2-42.2-20.2-63.2-28.7c-34.3-13.6-45.1-16.1-106.8-23.5c-80.5-10-107.5-7.6-171,16.3
						c-68.8,25.3-134.5,85.2-172.6,156.9c-36.4,67.8-56.9,169.4-53.8,267.5c3.7,129.6,40,310.2,90.6,450.9
						c35.6,99.1,52.4,129,84.2,149.6c57.7,38,130.1,1.9,138.6-69.2c2.4-20-3.4-62.2-22.4-163.7c-16.7-87.7-31.2-196.7-33.7-249.2
						c-6.1-123.1,14.4-238.3,47.1-268.3c9.8-8.8,13.5-9.6,43.6-7.6c89.7,6.7,197.6,61.4,326.7,166.1
						c138.1,112.1,249.3,226.2,378.6,389.9c143.1,181.3,272,373.7,315.4,471.7c24.2,54.7,46.7,86.5,75.1,106.2
						c28.7,20.2,45.5,26.2,79.5,28.6c21.3,1.7,34.7,0.1,54.6-6.7c32-10.5,59.6-32,77.7-59.7c11.7-18.1,13.7-24.7,18.1-61.6
						c4.8-40.5,4.7-42.5-6.7-74.2c-9.8-27.9-18.2-41.6-57-90.5c-24.9-31.7-76.7-102.4-114.8-157.6c-41.8-60.4-134.6-182.3-233-306.8
						c-112.9-143-178-229.3-211.4-280.3c-70.5-107.7-213.7-355.2-207.9-359.7c0.9-0.7,39.1,16.6,85.2,38.1
						c272.8,129.8,530.7,213.5,759.2,246.7c131.7,19.3,236.8,20.6,315.6,4.5C7851.5,26703,7979.4,26586.7,8018.5,26412.3z
						 M7709.3,26189.7c3.6,33.1-0.5,84.5-8.4,110.6c-10.4,33.5-27.5,56.5-59.8,80.2c-31,23-51.3,32.2-110.7,49.4
						c-87.6,25.8-164.2,29.9-299.3,15.8c-49.6-5.1-97.5-11.2-106.1-13s-34.6-7.7-58.3-12.5c-207.5-45.1-496.9-149.3-678.9-244.7
						l-28.1-14.9l-14.2-34.8c-93.6-228-156.6-499.5-163.2-702c-2.2-68.4,6.7-177,18.7-223.8c10.4-40.6,34.9-95.1,51.2-115.5
						c17.3-21.1,47.3-42.6,70.6-50.6c46.2-16.4,125.9-12.9,196.8,7.9c45.8,13.4,141.9,54,188.7,79.5c51.3,28,149.8,91.2,208.9,134.1
						c27.5,20,51,36.8,52.6,37c9.8,1.2,135.5,100.7,178.4,142.1c60.5,57.4,199.8,200,252.7,258.5c51.5,56.4,170,206.4,200.7,253.1
						C7653.2,26025.1,7703.7,26139.6,7709.3,26189.7z"/>
				</g>
			</g>
		</g>
	</g>
	<g>
		<path class="st4" d="M1738.5,33.9l924,0c21,0,38-17,38-38l0-572.2c0-21-17-38-38-38l-924,0c-21,0-38,17-38,38l0,572.2
			C1700.5,16.9,1717.5,33.9,1738.5,33.9z"/>
		<path class="st1" d="M1749,2.1l903.1,0c10.6,0,19.1-8.6,19.1-19.1l0-405.9c0-10.6-8.6-19.1-19.1-19.1l-903.1,0
			c-10.6,0-19.1,8.6-19.1,19.1l0,405.9C1729.8-6.5,1738.4,2.1,1749,2.1z"/>
		<text transform="matrix(1 0 0 1 2037.6323 -470.24)" class="st1" style="font-family:'Futura-Bold'; font-size:124.298px;">hello</text>
		<text transform="matrix(1 0 0 1 2033.6479 -375.7808)" class="st4" style="font-family:'Futura-Bold'; font-size:54.1803px;">my name is</text>
		<g transform="translate(0.000000,2048.000000) scale(0.100000,-0.100000)">
			<g id="XMLID_00000004543607538534353140000009223245274171763642_">
				<g>
					<path d="M21299,23308.2c-4.2,37.3,12.3,71.2,42.4,84.7c45.4,20.4,89.3-4.2,127.4-72.3c10.4-18.5,38.1-65.8,61.6-105.1
						c23.8-39.2,49.7-83.1,57.3-97.3c11.9-20.8,15.8-25,20-21.6c8.9,7.3,55.4,77.8,126.2,191.3c79.3,126.6,234.8,364.8,294.8,451
						c22.7,32.7,47.7,72.7,55.8,88.5c18.9,37.3,53.5,72.3,82.7,83.9c17.3,6.9,27.3,8.5,55.8,7.3c29.6-0.8,37.7-2.7,55-12.3
						c63.1-34.3,85.4-110.5,52.7-177.8c-5.4-10.8-21.9-33.1-36.6-49.2c-14.6-15.8-42.4-52-62-80c-62.3-89.3-249.8-334.8-375.2-491.5
						c-19.2-24.2-55.8-72.7-81.2-107.8c-25-35-56.6-77-69.7-93.5c-13.1-16.5-28.5-39.6-33.9-50.8c-11.5-25-40.8-52.3-62.3-58.9
						c-37.3-11.2-80.8,0.4-103.1,27.3c-37.4,46.2-80.1,135.5-136.6,287.5c-10.8,28.5-30.4,79.6-44.3,113.5
						C21312.1,23260.4,21300.5,23295.8,21299,23308.2z"/>
					<path d="M20137.5,21427.3c-21.5,20.7-29.1,42.3-26.7,73.8c4,48.3,37.5,86.9,165.5,192.2c46.7,37.9,85.7,71,86.9,73
						c1.2,2-17.5,29.9-42.3,62.2c-71.8,93.7-87.7,134-73.8,182.6c17.9,61.4,84.5,87.3,145.6,56.6c28.3-14.4,48.7-33.9,105.3-100.1
						c26.3-30.7,49.8-56.2,52.6-57c6-1.6,81,56.2,149.5,114.9c92.1,78.6,122,98.9,157.9,107.3c21.5,4.8,22.3,4.8,45.1,0
						c28.3-6,49.1-22.7,62.2-49.5c9.6-19.1,10.8-25.5,9.2-47.1c-1.2-14.8-6-32.3-11.2-42.7c-12.8-25.5-52.6-63.4-120-114.9
						c-64.6-49.1-139.6-110.9-144-118c-1.2-2.4,7.2-17.1,19.5-32.3c12-15.6,28.3-41.5,36.3-57.8c13.6-27.5,14.8-32.7,14.4-63.8
						c0-39.9-9.6-64.2-35.5-89.7c-25.1-25.5-49.8-35.5-87.7-35.5c-26.7,0-35.9,1.6-55.4,10.8c-29.9,14-51.8,31.9-76.6,62.6
						c-10.8,13.2-21.5,23.9-23.9,23.9s-41.9-29.9-87.7-66.2c-45.9-36.3-96.9-74.2-113.3-83.7
						C20223.6,21389.8,20176.2,21389.4,20137.5,21427.3z"/>
					<path d="M24557.7,21453.2c10.4-32.7,11.6-57.8,5.2-88.1c-7.6-37.9-22.7-66.6-47.9-91.3c-61.4-59.4-153.1-65.8-226.1-14.8
						c-36.7,25.5-56.2,54.6-106.1,156.3c-25.1,51.4-65,133.2-88.9,181.5c-67,134.4-154.7,372.5-183.4,498.1
						c-5.2,21.1-10.4,38.3-12.4,38.3c-1.6,0-6-10.4-9.6-22.7c-25.5-92.1-143.6-429.5-177.9-509.3c-11.2-25.5-64.6-125.6-96.9-181.5
						c-14-23.9-47.9-56.6-70.6-68.6c-83.3-42.3-179.9-13.2-233.3,70.6c-30.7,48.3-44.7,101.3-57.4,220.9
						c-4.4,42.7-15.2,138.8-23.9,213.4c-27.5,235.7-61,600.2-67.8,739.8c-2.8,49.5-6,107.7-7.6,129.6l-2.8,39.9l-7.2-13.6
						c-6.8-12.8-35.9-86.1-90.9-227.7c-13.2-33.9-35.5-95.7-49.5-137.6c-14.4-41.5-35.9-101.7-47.9-133.6
						c-12.4-31.9-26.7-70.2-32.3-84.9c-16.3-44.3-45.9-76.6-87.3-95.3c-27.1-12.4-86.5-12.8-113.3-0.4
						c-46.7,21.5-73.4,53.8-90.5,108.9c-5.6,18.3-17.9,53-27.5,76.6c-9.6,23.5-24.3,68.6-33.5,99.7c-15.6,55-71,276-102.1,409.2
						c-8.8,35.9-17.1,65-19.5,65.4c-9.2,0-163.5-482.5-237.3-740.6c-11.2-39.5-28.3-96.9-37.9-127.6s-30.7-100.5-47.1-155.5
						c-94.1-314.6-120-393.2-150.3-455c-41.5-83.3-89.7-125.2-145.6-125.2c-35.1,0-59,9.2-81.8,32.3c-44.3,44.3-51,116.4-21.5,238.1
						c9.2,37.1,143.2,442.7,281.9,852.2c29.9,87.7,67,201,82.5,251.2c15.6,50.6,36.3,116,45.9,145.6
						c26.7,82.6,86.9,287.5,111.7,380.4c12.4,45.9,31.9,114.1,43.9,151.5c11.6,37.5,25.9,85.7,31.5,106.9
						c12.4,46.7,25.1,73.8,47.5,97.7c40.3,43.9,102.5,60.2,156.3,41.5c63.8-22.3,100.9-77.8,139.2-206.6
						c11.6-38.7,58.6-217.3,142.8-540.4c6.8-25.9,14-47.1,15.6-47.1c6.4,0,23.9,43.9,122.4,305.1c23.9,63.8,63.4,161.5,87.3,217.3
						c24.7,57,47.5,117.2,52.6,137.2c4.8,19.1,13.2,44.3,18.7,55.4c15.6,29.9,45.5,59.8,74.6,73c21.5,10,29.5,11.6,62.6,11.6
						c32.7,0,41.1-1.6,60.6-10.8c41.5-19.1,72.6-61.4,82.5-110.9c9.2-46.3,24.3-149.1,34.3-229.3c7.2-57.4,18.3-120,35.9-199.4
						c31.9-143.6,75.4-401.2,99.3-588.2c24.3-185.8,21.9-173.5,28.3-167.1c17.1,17.9,205,526,245.7,665.6
						c6.8,22.7,17.5,51.8,23.9,64.2c31.1,62.2,102.5,98.9,168.3,87.3c65.8-12,117.2-63.8,130.4-132c3.2-14.4,3.6-62.2,2-141.2
						c-2.8-116,1.2-237.3,10-319c6.8-61.8,27.9-181.1,42.3-236.9c7.6-29.1,19.1-77.8,25.9-107.7c11.6-49.8,33.5-126.4,57.8-199.8
						c15.2-44.7,80.6-193.4,99.7-225.7c25.5-43.9,47.1-71.4,93.3-119.2C24528.2,21515.8,24546.9,21487.9,24557.7,21453.2z"/>
					<path d="M24418.9,21080.7c119.6-42.7,155.9-185.8,70.2-276.8c-37.5-39.9-81.8-56.2-141.2-53c-19.9,0.8-114.9,3.6-210.2,6
						c-197.8,4.4-235.7,5.6-428.7,16.4c-76.6,4.4-198.6,9.6-271.2,12c-72.2,2.4-166.7,6.8-209.4,10c-124.8,9.2-201.8,13.6-321,17.9
						c-61.4,2.4-169.1,7.6-239.3,12s-203.8,11.6-297.1,16c-93.3,4.4-216.1,11.6-273.2,16c-130,10-279.2,18.7-402.8,23.9
						c-107.7,4.4-127.2,8.4-152.3,29.9c-42.7,36.3-36.7,102.9,12,131.2c25.9,15.2,58.6,18.3,212.2,18.3c77,0.4,181.1,2,231.3,4
						c279.6,11.6,1585.6,27.9,1984,24.7c137.2-0.8,264.4-2,283.1-2c18.7,0,55.4,0.4,81.8,0.8
						C24387.8,21089.1,24398.6,21087.9,24418.9,21080.7z"/>
					<path d="M24369.9,23524.9c-0.4-49.1-8.4-82.9-31.5-131.2c-14.8-30.7-23.5-43.1-48.7-67.8c-35.9-35.5-63-52.6-110.9-69.4
						c-32.3-11.2-39.5-12.4-84.9-12.4c-59,0-86.9,6.4-133.6,30.7c-37.9,19.5-93.3,71.8-112.9,106.5c-31.9,57-43.5,125.6-31.1,187.4
						c21.9,112.9,110.1,198.2,227.7,221.7c33.9,6.4,93.7,4.8,127.6-4c13.2-3.6,39.1-14,57.4-22.7
						C24315.6,23721.5,24369.9,23628.6,24369.9,23524.9z"/>
					<path d="M21784.9,22247.2c5.2-50.6-0.4-118.8-14-171.5c-16-63.4-92.1-228.5-144.4-313.1c-57-92.1-156.7-227.7-217.7-295.5
						c-47.9-53.8-151.5-157.5-209.8-210.2c-53.4-48.7-267.2-216.9-304.7-240.1c-12.8-8-47.9-30.7-78.2-50.6
						c-114.1-75.4-216.1-121.2-407.6-183.4c-95.3-30.7-127.2-39.1-189.8-49.1c-176.7-28.7-301.1-15.6-426.3,45.5
						c-120,58.2-202.6,156.7-248.8,296.7c-21.1,63.4-28.3,109.3-30.7,195.8c-3.2,112.5,10.8,213.8,47.1,342.6
						c33.1,116.8,69,208.6,148.4,376.5c12.4,25.5,20.3,46.7,17.5,46.7c-2.4,0-55.8-25.1-119.2-55.8
						c-123.6-60.2-163.5-75.8-193.4-75.8c-48.3,0.4-81.8,37.1-75.4,81.8c5.6,35.1,38.3,67,120.8,116.8
						c61,36.7,228.5,122.4,348.1,177.9c42.7,19.9,80.6,38.3,84.1,40.3c3.6,2.4,26.7,34.7,51.8,71.8c25.1,37.5,54.2,79.4,64.6,93.7
						c10.4,14.4,17.1,26.3,14.8,27.1c-2,0.8-16.3-3.2-31.1-8.8c-14.8-5.6-44.7-15.2-66.6-21.1c-35.9-9.6-47.1-10.8-109.7-10.8
						c-81.8-0.4-108.5,5.2-169.1,36.7c-65.8,33.5-124.4,101.3-153.9,177.5c-28.3,72.2-36.7,176.3-21.9,274
						c19.1,129.2,77,305.5,144.4,440.3c47.5,94.9,67.8,122.8,102.1,139.6c62.2,31.1,130.4-13.6,130.4-85.7
						c0-20.3-10.8-61.8-41.9-161.1c-27.1-85.7-54.6-193-63.4-245.3c-20.7-122.4-14-240.1,15.2-274c8.8-10,12.4-11.2,42.7-12.8
						c90.5-4,205,37.9,346.6,127.2c151.5,95.7,276.4,196.6,425.1,345c164.7,164.3,316.6,341.4,371.7,434.3
						c30.7,51.8,57,81,87.7,97.3c31.1,16.8,48.7,20.7,82.9,19.1c21.5-0.8,34.7-4,53.8-13.2c30.7-14.4,55.8-39.1,70.6-69
						c9.6-19.5,10.8-26.3,10.8-63.8c0-41.1-0.4-43.1-15.6-73.4c-13.2-26.7-23.1-39.5-67.8-83.7c-28.7-28.7-88.9-93.3-133.6-144
						c-49.1-55.4-156.3-166.3-269.6-279.2c-130-129.6-205.4-208.2-244.9-255.2c-83.3-99.3-256-329.8-250.8-335
						c0.8-0.8,41.1,12,89.7,27.9c288.3,97.3,556.3,150.3,788.8,156.3c134,3.6,239.3-7.6,316.2-33.1
						C21652.5,22557.8,21766.6,22426.2,21784.9,22247.2z M21449.1,22061.3c7.6,32.7,9.6,84.5,4.8,111.7
						c-6.4,34.7-20.7,59.8-50.2,87.3c-28.3,26.7-47.5,38.3-104.9,62.6c-84.5,36.3-160.7,49.5-297.5,51.4
						c-50.2,0.8-98.9,0.4-107.7-0.4c-8.8-0.8-35.5-3.6-59.8-5.6c-213-20.3-514.8-90.1-708.3-163.9l-29.9-11.6l-18.3-33.1
						c-120.8-216.9-216.1-480.9-246.9-682.7c-10.4-68.2-14.4-177.9-8-226.1c5.6-41.9,23.5-99.3,37.5-121.6
						c14.8-23.1,42.3-48.3,64.6-59c44.3-21.9,124.4-27.9,197.8-15.6c47.5,8,148.4,37.1,198.2,57c54.6,21.9,160.7,73.4,224.9,109.3
						c29.9,16.8,55.4,30.7,57,30.7c10,0,147.6,84.5,195.4,120.8c67.4,50.2,223.7,176.3,283.5,228.5
						c58.2,50.2,194.6,186.2,230.9,229.3C21373.3,21903.4,21437.6,22011.9,21449.1,22061.3z"/>
				</g>
			</g>
		</g>
	</g>
</g>
</svg>
