<?xml version="1.0" encoding="utf-8"?>
<!-- Generator: Adobe Illustrator 27.5.0, SVG Export Plug-In . SVG Version: 6.00 Build 0)  -->
<svg version="1.1" id="Layer_1" xmlns="http://www.w3.org/2000/svg" xmlns:xlink="http://www.w3.org/1999/xlink" x="0px" y="0px"
	 viewBox="0 0 100 100" style="enable-background:new 0 0 100 100;" xml:space="preserve">
<style type="text/css">
	.st0{fill:#FD03AF;}
	.st1{fill:#FFFFFF;}
	.st2{fill:#FDCC03;}
	.st3{fill:#06D438;}
	.st4{fill:#0184FD;}
	.st5{fill:#4780BE;}
	.st6{fill:#FD6700;}
	.st7{fill:#FD0026;}
</style>
<g id="machi_market_sticker_00000165222808251376817030000017766149249035177878_">
	<g>
		<g>
			<g id="XMLID_00000082332095100889463440000007571880616443075715_">
				<g>
					<path class="st0" d="M96.2,67.6c-1.2,1.2-3.1,2-4.9,2c-1.1,0-2.1-0.4-2.8-1.2c-0.5-0.6-1-1.7-0.7-3.7l1.6-8.4l-1.8-1.1l0.3-1.3
						l7.3-3.6h1.5L96,53.8h1.5l-0.4,2.3h-1.5L94,64.3c-0.2,1.2-0.1,1.7,0.1,1.9c0.2,0.1,0.6,0.1,1-0.2l0.8-0.4l0.6,1.6L96.2,67.6z
						 M88.5,55l1.8,1.1l-1.7,8.9c-0.6,2.9,1.1,4,2.7,4c1.4,0,3.2-0.6,4.4-1.8l-0.1-0.4c-1.2,0.6-2.9,0.6-2.3-2.5l1.7-8.8h1.5
						l0.1-0.8h-1.5l0.6-3.3h-0.4l-6.8,3.3L88.5,55z"/>
					<path class="st1" d="M88.2,37.1c0.1,0.1,0.1,0.2,0.1,0.3l-2.3,12.1c0,0.1,0,0.2,0.1,0.3l1.2,1.5c0.1,0.1,0.1,0.2,0.1,0.3l0,0.1
						c0,0.1-0.1,0.2-0.1,0.2L87,52l0.1-0.3l-1.5-1.8L88.2,37.1L88.2,37.1z"/>
					<path class="st1" d="M88.9,33.3c-0.3,1.5-1.8,2.8-3.3,2.8c-1.5,0-2.5-1.2-2.2-2.7c0.2-1,0.9-1.9,1.9-2.4
						c0.9-0.5,1.8-0.4,2.6-0.1C88.6,31.3,89.1,32.2,88.9,33.3z"/>
					<path class="st1" d="M85.6,36c1.5,0,3-1.2,3.3-2.8c0.2-1.1-0.2-2-1-2.5c-0.8-0.4-1.6-0.4-2.6,0.1c-0.9,0.5-1.7,1.4-1.9,2.4
						C83.1,34.8,84.1,36,85.6,36z M85.6,36.2c-0.8,0-1.5-0.3-1.9-0.9c-0.5-0.6-0.6-1.3-0.5-2.1c0.2-1.1,1-2,2-2.5
						c0.9-0.5,1.8-0.5,2.7-0.1l0,0c0.9,0.5,1.4,1.5,1.1,2.7C88.7,34.9,87.2,36.2,85.6,36.2z"/>
					<polygon class="st1" points="87,51.9 78.7,52 78.8,51.6 80.9,49.8 82.4,42.2 80.5,41.1 80.6,40.6 87.7,37.2 88.1,37.2 
						85.6,49.8 87.1,51.6 					"/>
					<path class="st1" d="M78.7,52l8.3,0l0.1,0.1c-0.1,0.1-0.2,0.1-0.3,0.1l-7.9,0C78.8,52.1,78.7,52.1,78.7,52L78.7,52z"/>
					<path class="st1" d="M81.9,42.1l-1.4-0.8c-0.1,0-0.2-0.1-0.2-0.2l0.1,0l1.9,1.1l-1.5,7.7l-2.1,1.8l-0.1,0.3l-0.1,0
						c-0.1-0.1-0.1-0.2-0.1-0.3c0-0.1,0.1-0.2,0.1-0.2l1.9-1.6c0.1-0.1,0.1-0.1,0.1-0.2l1.4-7C82.2,42.4,82.1,42.2,81.9,42.1z"/>
					<path class="st1" d="M80.5,41.1l-0.1,0c0-0.1,0-0.1,0-0.2l0-0.2c0-0.1,0.1-0.2,0.2-0.3l6.9-3.4c0.1,0,0.1,0,0.2,0h0.1
						c0.1,0,0.2,0.1,0.3,0.2l0,0h-0.4l-7.1,3.5L80.5,41.1z"/>
					<path class="st2" d="M85.7,66.5c-1.9,2-4.3,3.1-6.7,3.1c-1.3,0-2.6-0.4-3.8-1.1c-3.1-2-3.5-6.5-1.1-10.4c1.2-2,3.1-3.4,5.1-4
						c0.7-0.2,1.6-0.3,2.5-0.3c0,0,0,0,0,0c2.1,0,3.8,0.7,4.9,2c1.1,1.4,1.5,3.3,1,5.7L87.7,62L79,62c0,1,0.4,2.1,0.8,2.7
						c0.5,0.7,1.1,1.1,1.9,1.2c0.9,0.1,2-0.2,2.8-0.9l0.8-0.6l0.8,1.8L85.7,66.5z M75.7,67.8c2.6,1.7,6.6,1.2,9.5-1.9L85,65.5
						c-1.9,1.6-4.5,1.6-5.8-0.4c-0.7-0.9-1.1-2.5-0.8-3.9l8.8,0c0.9-4.5-1.5-6.8-5.2-6.8c-0.8,0-1.6,0.1-2.3,0.3
						c-2,0.6-3.6,1.9-4.7,3.7C72.8,61.8,72.7,65.9,75.7,67.8z"/>
					<path class="st1" d="M70.7,31.2L70.7,31.2c0.1,0,0.2,0.2,0.1,0.3l-1.2,6.2c-0.1,0.3,0.3,0.6,0.6,0.4c2-1,4.5-1.5,6-0.5
						c1.3,0.8,1.5,2.4,1.5,3.5c0,0.6-0.2,1.2-0.3,1.9l-1.3,6.5c0,0.1,0,0.2,0.1,0.3l1.2,1.5c0.1,0.1,0.1,0.2,0.1,0.3l0,0.1
						c0,0.1-0.1,0.2-0.1,0.2L77.3,52l0.1-0.3l-1.5-1.8l1.3-6.8c0.1-0.6,0.3-1.3,0.3-1.9c0.3-5-4.9-4.4-8.3-2.2L70.7,31.2z"/>
					<path class="st1" d="M69,52l8.3,0l0.1,0.1c-0.1,0.1-0.2,0.1-0.3,0.1l-7.9,0C69.1,52.2,69,52.1,69,52L69,52z"/>
					<path class="st1" d="M67.4,50l1.2,1.5c0.1,0.1,0.1,0.2,0.1,0.3c0,0,0,0,0,0.1l0,0.1c0,0.1-0.1,0.2-0.1,0.2L68.5,52l0.1-0.3
						l-1.5-1.8L69,40c1.6-1.6,4.2-0.8,3.7,2.2l-1.5,7.6L69,51.6L69,52l-0.1,0c0-0.1-0.1-0.2-0.1-0.3c0,0,0,0,0,0
						c0-0.1,0.1-0.2,0.1-0.2l1.9-1.6c0.1-0.1,0.1-0.1,0.1-0.2l1.4-7.4c0.2-1.2-0.1-2.2-0.9-2.6c-0.7-0.4-1.6-0.2-2.3,0.4
						c-0.1,0.1-0.1,0.1-0.1,0.2l-1.8,9.3C67.3,49.7,67.3,49.9,67.4,50z"/>
					<path class="st1" d="M69,40l-1.9,9.8l1.5,1.8L68.5,52l-8.3,0l0.1-0.3l2.1-1.8L65,36.2l-1.9-1.1l0.1-0.4l7.1-3.5h0.4l-1.5,7.8
						c3.4-2.2,8.6-2.8,8.3,2.2c0,0.6-0.2,1.3-0.3,1.9l-1.3,6.8l1.5,1.8l-0.1,0.3l-8.3,0l0.1-0.3l2.1-1.8l1.5-7.6
						C73.2,39.2,70.6,38.4,69,40z"/>
					<polygon class="st3" points="66,53.8 66.8,53.8 66.7,54.5 65.9,54.5 					"/>
					<polygon class="st3" points="66,53.8 65.9,54.5 65.1,54.5 65.2,53.8 					"/>
					<polygon class="st3" points="62.3,53.8 65.2,53.8 65.1,54.5 62.1,54.5 					"/>
					<path class="st1" d="M68.3,52.1l-7.9,0c-0.1,0-0.3-0.1-0.3-0.2l0.1,0l8.3,0l0.1,0.1C68.5,52.1,68.4,52.1,68.3,52.1z"/>
					<path class="st1" d="M64.5,36.2l-1.4-0.8c-0.1,0-0.2-0.1-0.2-0.2l0.1,0l1.9,1.1l-2.6,13.6l-2.1,1.8L60.2,52l-0.1,0
						C60,51.9,60,51.8,60,51.7c0-0.1,0.1-0.2,0.1-0.2l1.9-1.6c0.1-0.1,0.1-0.1,0.1-0.2l2.5-13C64.8,36.4,64.7,36.3,64.5,36.2z"/>
					<path class="st1" d="M62.9,35.1c0-0.1,0-0.1,0-0.2l0-0.2c0-0.1,0.1-0.2,0.2-0.3l6.9-3.4c0.1,0,0.1,0,0.2,0h0.1
						c0.1,0,0.2,0.1,0.3,0.2l-0.1,0h-0.4l-7.1,3.5l-0.1,0.4L62.9,35.1z"/>
					<polygon class="st3" points="62.3,53.8 62.1,54.5 61.4,54.5 61.5,53.8 					"/>
					<polygon class="st3" points="61.5,53.8 61.4,54.5 60.6,54.5 60.7,53.8 					"/>
					<path class="st3" d="M65.7,68.1l-1.2-2.7l-0.2,1L65.7,68.1z M69.2,53.8l7,0l-0.3,1.6l-4.9,3l-1.8,1.5l2.7,6.3l1.5,1.9l-0.3,1.3
						l-6.9,0l-0.5-1.3l-0.2,1.3l-9.5,0l0.3-1.5l2-1.7l2.3-11.7h0.8L59,66.7l-2,1.7l-0.1,0.3l7.9,0l0.1-0.3l-1.4-1.7l0.7-3.8l2.5,5.8
						l5.8,0l0.1-0.3l-1.4-1.7l-3-7l1.9-1.5l0.4-0.3l4.6-2.9l0.1-0.4l-5.5,0L69.7,55l0,2.7l-5.3,4.2l1.4-7.2h0.8l-1,5.4l3.4-2.7
						l0-2.4L69.2,53.8z"/>
					<path class="st1" d="M49.5,41.3c1.1-1.8,2.9-3.2,4.9-3.9c1.2-0.4,2.8-0.4,4-0.2c1.3,0.3,2.6,0.9,3.2,1.5
						c0.1,0.1,0.1,0.2,0.1,0.3L61,43.2c0,0.1-0.1,0.2-0.3,0.2h0c-0.1,0-0.2-0.1-0.2-0.1l-2.7-5.2c0-0.1-0.1-0.1-0.2-0.1
						c-0.3,0-0.5,0-0.8,0c-1.3,0.1-2.9,2.3-3.5,5c-0.4,1.8-0.4,3.8,0.6,5.3c1.4,2,3.9,2,5.8,0.5c0.1-0.1,0.3,0,0.4,0.1
						c0,0,0,0.1,0,0.1c0,0.1,0,0.1-0.1,0.2c-3.1,3.4-7.1,3.6-9.7,1.9C47.3,49.1,47.3,44.7,49.5,41.3z"/>
					<path class="st1" d="M61.7,38.8c-0.7-0.6-2-1.2-3.2-1.5c-1.2-0.3-2.8-0.2-4,0.2c-2,0.6-3.8,2-4.9,3.9c-2.2,3.4-2.2,7.8,0.9,9.8
						c2.6,1.6,6.5,1.5,9.7-1.9c0,0,0.1-0.1,0.1-0.2c0,0,0-0.1,0-0.1c-0.1-0.2-0.3-0.2-0.4-0.1c-2,1.5-4.4,1.4-5.8-0.5
						c-1-1.5-1-3.5-0.6-5.3c0.6-2.8,2.2-4.9,3.5-5c0.3,0,0.5,0,0.8,0c0.1,0,0.2,0.1,0.2,0.1l2.7,5.2c0,0.1,0.1,0.1,0.2,0.1h0
						c0.1,0,0.2-0.1,0.3-0.2l0.8-4.2C61.8,39,61.8,38.9,61.7,38.8z M57.8,51.2c-0.9,0.5-1.8,0.9-2.8,1c-0.4,0.1-0.8,0.1-1.2,0.1
						c-1.3,0-2.6-0.4-3.7-1.1c-1.5-1-2.4-2.6-2.5-4.5c-0.1-1.8,0.5-3.8,1.6-5.6c1.2-1.9,3-3.3,5.1-3.9c1.2-0.4,2.9-0.4,4.1-0.2
						c0.7,0.1,1.4,0.4,2,0.7c0.6,0.3,1.1,0.6,1.5,1c0,0,0.1,0.1,0.1,0.1c0,0,0,0,0,0l-0.9,4.6c0,0.1-0.1,0.2-0.2,0.2h-0.4
						c-0.1,0-0.1,0-0.2-0.1l-2.7-5.3c0-0.1-0.1-0.1-0.1-0.1c-0.2,0-0.4,0-0.7,0c0,0,0,0,0,0c-1.2,0.1-2.8,2.1-3.3,4.9
						c-0.3,1.5-0.5,3.6,0.6,5.1c0.6,0.8,1.4,1.3,2.3,1.5c1.1,0.2,2.4-0.3,3.5-1.2c0,0,0.1,0,0.1,0c0.1,0,0.1,0,0.2,0.1l0.2,0.5
						c0,0.1,0,0.2,0,0.2C59.5,50,58.7,50.7,57.8,51.2z"/>
					<path class="st4" d="M55.1,54.3c0.8-0.4,1.6-0.5,2.5-0.5H60l-1.2,6.4h-1.4l-2.1-3.2c-0.4,0.1-0.8,0.4-1.2,0.8l-1.7,8.7l1.4,1.7
						l-0.3,1.3l-9.3,0l0.3-1.3L44.3,68l0-0.1l2-1.7l1.3-6.5l-1.8-1.1l0.3-1.3l7.3-3.6h1.5l-0.1,0.5L55.1,54.3L55.1,54.3z M51.5,66.7
						l1.8-9.3c0.6-0.7,1.5-1.3,2.3-1.3l2.2,3.3h0.4l0.8-3.9l0.2-0.9h-1.6c-0.1,0-0.1,0-0.2,0c-0.8,0-1.5,0.2-2.1,0.5h0
						c-0.6,0.3-1.2,0.6-1.7,1l0.3-1.6h-0.4l-6.8,3.3l-0.1,0.4l1.8,1.1L47,66.7l-2,1.7l-0.1,0.3l7.9,0l0.1-0.3L51.5,66.7z"/>
					<polygon class="st5" points="44,69.4 44.2,68 44.4,68.2 44.1,69.4 					"/>
					<path class="st1" d="M47.6,51.8c0,0.1-0.1,0.2-0.2,0.3L47.4,52l0.1-0.4l-0.9-1.7l-2.7-12.7l0.1-0.1c0.1,0.1,0.1,0.2,0.2,0.3
						l2.6,12.3c0,0,0,0.1,0,0.1l0.8,1.5C47.7,51.5,47.7,51.6,47.6,51.8L47.6,51.8z"/>
					<path class="st1" d="M40,52l7.4,0l0.1,0.1c-0.1,0.1-0.2,0.1-0.3,0.1l-6.8,0C40.2,52.2,40.1,52.1,40,52L40,52z"/>
					<path class="st1" d="M37.5,48.2c-0.1,0.1-0.1,0.2-0.1,0.4l0.7,2.9c0,0.1,0,0.1,0,0.2l0,0.1c0,0.1-0.1,0.2-0.2,0.3L37.9,52
						l0.1-0.4l-0.8-3.2l2.9-4.9l1.4,6.4l-1.4,1.7L40,52l0,0c-0.1-0.1-0.1-0.3-0.1-0.4v0c0-0.1,0-0.2,0.1-0.2l1.1-1.4
						c0.1-0.1,0.1-0.3,0.1-0.4l-0.9-4.4c-0.1-0.4-0.7-0.5-0.9-0.1L37.5,48.2z"/>
					<path class="st6" d="M40.2,54.8c-0.9-0.2-1.8-0.2-2.8-0.1c-1.6,0.2-3.2,0.7-4.4,1.5l-0.8,4.4h0.4l4.7-5.1
						c1.3-0.3,1.8,0.7,1.9,1.6c0,0.4,0,0.8,0,1.1c-0.3,1.5-0.5,1.8-1.8,2.4c-2.9,1.2-6.2,1.8-6.8,5c-0.1,0.4-0.1,0.8,0,1.2
						c0.4,2.7,4.6,2.7,7.4,0.6c-0.1,0.7,0.5,1.3,1.1,1.3l4.6,0l0.1-0.3l-1.4-1.7l1.4-7.3C44.1,56.8,42.4,55.2,40.2,54.8z M44.3,59.6
						L43,66.5l1.3,1.5L44,69.4l-5.1,0c-0.6,0-1.1-0.3-1.5-0.7c0,0-0.1-0.1-0.1-0.1c-1.2,0.7-2.6,1-3.9,1.1c-0.7,0-1.4-0.1-1.9-0.4
						c-1.1-0.4-1.7-1.3-1.9-2.4c-0.1-0.5,0-1.1,0.1-1.5c0.4-2,1.7-3.1,3.2-3.9c0.8-0.4,1.6-0.7,2.4-1c0.5-0.2,1.1-0.4,1.6-0.6
						c1-0.4,1.1-0.6,1.4-1.8c0.1-0.6,0-1.5-0.3-1.8c0,0-0.1-0.1-0.4-0.1l-4.7,5.2h-1.7l1.1-5.6l0.3-0.2c1.3-0.9,3-1.5,4.7-1.7
						c1.1-0.1,2.1-0.1,3.1,0.1l0,0C43.3,54.6,44.9,56.8,44.3,59.6z"/>
					<path class="st1" d="M37.7,52.2l-3.6,0c-0.2,0-0.3-0.1-0.4-0.2l0,0l4.2,0l0.1,0.1C37.9,52.1,37.8,52.2,37.7,52.2z"/>
					<polygon class="st1" points="47.4,52 40,52 40.1,51.6 41.5,49.9 40.1,43.4 37.2,48.3 38,51.6 37.9,52 33.7,52 33.8,51.6 
						35.4,49.9 43,37.2 43.8,37.2 46.6,49.9 47.5,51.6 					"/>
					<path class="st1" d="M35.2,49.7l7.5-12.5c0.1-0.1,0.2-0.2,0.4-0.2h0.5c0.1,0,0.2,0,0.3,0.1l-0.1,0.1H43l-7.6,12.7l-1.6,1.7
						L33.7,52l0,0c-0.1-0.1-0.1-0.3-0.1-0.4c0-0.1,0.1-0.2,0.1-0.2L35.2,49.7C35.2,49.8,35.2,49.8,35.2,49.7z"/>
					<path class="st1" d="M15.1,37.2c0.1,0.1,0.1,0.2,0.1,0.3l0,0.3c-0.1,0.3,0.3,0.6,0.6,0.4c0.8-0.4,1.6-0.7,2.5-0.9
						c1.3-0.3,2.5-0.3,3.4,0.1c0.7,0.3,1.2,0.8,1.5,1.4c0.1,0.2,0.4,0.3,0.6,0.2c1-0.7,2.2-1.3,3.4-1.6c1.6-0.4,3-0.4,4,0.1
						c1.5,0.8,1.7,2.4,1.6,3.6c0,0.6-0.2,1.4-0.3,2.1l0,0.1l-1.2,6.3c0,0.1,0,0.2,0.1,0.3l1.2,1.5c0.1,0.1,0.1,0.2,0.1,0.3l0,0.1
						c0,0.1-0.1,0.2-0.1,0.2L32.3,52l0.1-0.3l-1.5-1.8l1.3-6.6c0.1-0.7,0.3-1.5,0.3-2.2c0.3-5.4-6-4.1-9.3-1.4
						c-0.8-3.4-5.4-2.7-8.5-0.7L15.1,37.2L15.1,37.2z"/>
					<path class="st1" d="M24,52l8.3,0l0.1,0.1c-0.1,0.1-0.2,0.1-0.3,0.1l-7.9,0C24.1,52.2,24,52.1,24,52L24,52z"/>
					<path class="st1" d="M22.9,43.6c0.2-0.8,0.3-1.6,0.6-2.3c1.3-3,4.9-2.5,4.2,1.1l-1.5,7.6l-2.1,1.8L24,52l-0.1,0
						c-0.1-0.1-0.1-0.2-0.1-0.3c0-0.1,0.1-0.2,0.1-0.2l1.9-1.6c0.1-0.1,0.1-0.1,0.1-0.2l1.4-7.4c0.3-1.7-0.3-2.5-1.1-2.7
						c-0.9-0.3-2.1,0.3-2.7,1.8c-0.2,0.5-0.3,1.2-0.5,1.8c0,0.2-0.1,0.3-0.1,0.5l-1.2,6.1c0,0.1,0,0.2,0.1,0.3l1.2,1.5
						c0.1,0.1,0.1,0.2,0.1,0.3l0,0.1c0,0.1-0.1,0.2-0.1,0.2L23.1,52l0.1-0.3l-1.5-1.8L22.9,43.6z"/>
					<path class="st1" d="M14.8,52l8.3,0l0.1,0.1c-0.1,0.1-0.2,0.1-0.3,0.1l-7.9,0C14.9,52.2,14.8,52.1,14.8,52L14.8,52z"/>
					<path class="st1" d="M12.6,49.9l1.9-9.8c1.7-1.7,4.5-0.9,3.9,2.2L17,49.9l-2.1,1.8L14.8,52l-0.1,0c-0.1-0.1-0.1-0.2-0.1-0.3
						c0-0.1,0.1-0.2,0.1-0.2l1.9-1.6c0.1-0.1,0.1-0.1,0.1-0.2l1.4-7.4c0.2-1.2-0.1-2.2-0.9-2.6c-0.8-0.4-1.8-0.2-2.5,0.5
						c-0.1,0.1-0.1,0.1-0.1,0.2l-1.8,9.3c0,0.1,0,0.2,0.1,0.3l1.2,1.5c0.1,0.1,0.1,0.2,0.1,0.3l0,0.1c0,0.1-0.1,0.2-0.1,0.2L14,52
						l0.1-0.3L12.6,49.9z"/>
					<path class="st1" d="M23.5,41.2c-0.3,0.7-0.4,1.6-0.6,2.3l-1.2,6.3l1.5,1.8L23.1,52l-8.3,0l0.1-0.3l2.1-1.8l1.5-7.6
						c0.6-3-2.2-3.9-3.9-2.2l-1.9,9.8l1.5,1.8L14,52l-8.3,0l0.1-0.3l2.1-1.8l1.5-7.7l-1.9-1.1l0.1-0.4l7.1-3.5h0.4L14.7,39
						c3.1-2,7.7-2.7,8.5,0.7c3.3-2.7,9.6-4,9.3,1.4c0,0.7-0.2,1.5-0.3,2.2l-1.3,6.6l1.5,1.8L32.3,52L24,52l0.1-0.3l2.1-1.8l1.5-7.6
						C28.3,38.7,24.8,38.2,23.5,41.2z"/>
					<path class="st7" d="M12.5,57.8l-1.7,8.8l1,1.2l1.7-1.4l1.4-7c0.2-0.9,0-1.6-0.6-1.9C13.8,57.2,13.1,57.3,12.5,57.8z
						 M12.4,56.9c1.6-1,3.7-0.1,3.2,2.5l-1.4,7.3l-2,1.7h-0.7L10,66.7l1.8-9.3C12,57.2,12.2,57,12.4,56.9z"/>
					<path class="st1" d="M5.7,52l8.3,0l0.1,0.1c-0.1,0.1-0.2,0.1-0.3,0.1l-7.9,0C5.8,52.2,5.7,52.1,5.7,52L5.7,52z"/>
					<path class="st1" d="M5.7,52L5.7,52c-0.1-0.1-0.2-0.2-0.1-0.3c0-0.1,0.1-0.2,0.1-0.2l1.9-1.6c0.1-0.1,0.1-0.1,0.1-0.2l1.4-7
						c0-0.2,0-0.4-0.2-0.4l-1.4-0.8c-0.1,0-0.2-0.1-0.2-0.2l0.1,0l1.9,1.1l-1.5,7.7l-2.1,1.8L5.7,52z"/>
					<path class="st1" d="M7.5,41.1l-0.1,0c0-0.1,0-0.1,0-0.2l0-0.2c0-0.1,0.1-0.2,0.2-0.3l6.9-3.4c0.1,0,0.1,0,0.2,0h0.1
						c0.1,0,0.2,0.1,0.3,0.2l-0.1,0h-0.4l-7.1,3.5L7.5,41.1z"/>
					<path class="st7" d="M11.8,53.8h1.5l-0.2,1.1c1.9-0.8,4.1-1.3,5.7-0.6c0.7,0.3,1.3,0.8,1.7,1.5c2.3-1.5,5.4-2.4,7.4-1.4
						c0.9,0.5,2,1.5,1.9,3.9c0,0.6-0.2,1.4-0.3,2.1l0,0.1l-1.1,5.9l1.4,1.7l-0.3,1.3l-27,0L2.8,68l2-1.7l1.3-6.5l-1.8-1.1l0.3-1.3
						L11.8,53.8z M21.1,58.7c-0.2,0.4-0.3,1-0.4,1.6c0,0.2-0.1,0.3-0.1,0.5l-1.1,5.7l1,1.2l1.8-1.5l1.4-7c0.2-1,0-1.8-0.6-2
						C22.4,57.1,21.6,57.6,21.1,58.7z M12.1,68.7l7.9,0l0.1-0.3l-1.4-1.7l1.2-6.1c0.1-0.7,0.3-1.6,0.5-2.2c1.2-2.9,4.7-2.4,4,1
						L23,66.7l-2,1.7l-0.1,0.3l7.9,0l0.1-0.3l-1.4-1.7l1.2-6.3c0.1-0.7,0.3-1.4,0.3-2.1c0.3-5.2-5.8-3.9-8.9-1.3
						c-0.7-3.2-5.1-2.5-8.1-0.7l0.3-1.7H12l-6.8,3.3l-0.1,0.4L7,59.4l-1.4,7.3l-2,1.7l-0.1,0.3l7.9,0l0.1-0.3h0.7L12.1,68.7z"/>
				</g>
			</g>
		</g>
	</g>
</g>
</svg>
