<?xml version="1.0" encoding="utf-8"?>
<!-- Generator: Adobe Illustrator 26.5.2, SVG Export Plug-In . SVG Version: 6.00 Build 0)  -->
<svg version="1.1" xmlns="http://www.w3.org/2000/svg" xmlns:xlink="http://www.w3.org/1999/xlink" x="0px" y="0px"
	 viewBox="0 0 500 500" style="enable-background:new 0 0 500 500;" xml:space="preserve">
<style type="text/css">
	.st0{display:none;}
	.st1{display:inline;}
	.st2{fill:#FFFFFF;stroke:#000000;stroke-width:10;stroke-miterlimit:10;}
	.st3{stroke:#000000;stroke-width:10;stroke-miterlimit:10;}
	.st4{fill:#FF0041;}
	.st5{fill:#181818;}
	.st6{fill:#FFB100;}
	.st7{fill:#C400FF;}
	.st8{fill:#FB00FF;}
	.st9{fill:#FF8200;}
	.st10{fill:#FF9D00;}
	.st11{display:inline;fill:#FFFFFF;}
	.st12{fill:#3A3A3A;}
	.st13{fill:#FFFFFF;}
	.st14{fill:#FFA400;}
</style>
<g id="Layer_1" class="st0">
	<g class="st1">
		<g>
			<path class="st2" d="M253.9,66.9l13.9,61.8c11.2,49.7,50,88.5,99.6,99.6l61.8,13.9c8.2,1.9,8.2,13.6,0,15.5l-61.8,13.9
				c-49.7,11.2-88.5,50-99.6,99.6l-13.9,61.8c-1.9,8.2-13.6,8.2-15.5,0l-13.9-61.8c-11.2-49.7-50-88.5-99.6-99.6L63,257.7
				c-8.2-1.9-8.2-13.6,0-15.5l61.8-13.9c49.7-11.2,88.5-50,99.6-99.6l13.9-61.8C240.3,58.6,252,58.6,253.9,66.9z"/>
			<path class="st3" d="M246.2,447.5C246.2,447.5,246.2,447.5,246.2,447.5c-7.7,0-14-5.1-15.7-12.6l-13.9-61.8
				c-10.4-46.3-47.1-83-93.5-93.4l-61.8-13.9c-7.5-1.7-12.6-8-12.6-15.7c0-7.7,5-14.1,12.6-15.7l61.8-13.9
				c46.4-10.4,83-47.1,93.5-93.4l13.9-61.8c1.7-7.5,8-12.6,15.7-12.6h0c7.7,0,14,5,15.7,12.6v0l13.9,61.8
				c10.4,46.3,47.1,83,93.4,93.4l61.8,13.9c7.5,1.7,12.6,8,12.6,15.8c0,7.7-5.1,14-12.6,15.7l-61.8,13.9
				c-46.3,10.4-83,47.1-93.4,93.4l-13.9,61.8C260.2,442.5,253.9,447.5,246.2,447.5z M253.9,66.9l-8,1.7l-13.4,61.9
				c-11.8,52.5-53.3,94-105.8,105.9l-61.8,13.9l61.8,13.4c52.5,11.8,94,53.4,105.8,105.9l13.9,61.8l13.4-61.8
				c11.8-52.5,53.4-94.1,105.9-105.9l61.8-13.9l-61.8-13.4c-52.5-11.8-94-53.4-105.9-105.9l-13.9-61.8L253.9,66.9z"/>
		</g>
		<g>
			<path class="st2" d="M422.8,326.1L422.8,326.1c4.8,21.1,21.2,37.6,42.4,42.4l0,0c8.2,1.9,8.2,13.6,0,15.5l0,0
				c-21.1,4.7-37.6,21.2-42.4,42.4l0,0c-1.9,8.2-13.6,8.2-15.5,0l0,0c-4.7-21.1-21.2-37.6-42.4-42.4l0,0c-8.2-1.9-8.2-13.6,0-15.5
				l0,0c21.1-4.7,37.6-21.2,42.4-42.4l0,0C409.2,317.8,420.9,317.8,422.8,326.1z"/>
			<path class="st3" d="M415.1,440.6c-7.7,0-14-5.1-15.7-12.6c-4-17.9-18.2-32.1-36.2-36.2c-7.5-1.7-12.6-8-12.6-15.7
				s5.1-14,12.6-15.7c17.9-4,32.1-18.2,36.2-36.2c1.7-7.5,8-12.6,15.7-12.6s14,5.1,15.7,12.6v0c4.1,17.9,18.2,32.1,36.2,36.1
				c7.5,1.7,12.6,8,12.6,15.7s-5.1,14-12.6,15.7c-17.9,4-32.1,18.2-36.2,36.2C429.1,435.6,422.8,440.6,415.1,440.6z M422.8,326.1
				l-8,1.7c-4.9,24.2-23.9,43.2-48,48.6c24.1,4.9,43.2,23.9,48.6,48c4.9-24.1,24-43.2,48-48.6c-24.1-4.9-43.2-23.9-48.6-48
				L422.8,326.1z"/>
		</g>
		<g>
			<path class="st2" d="M92.7,66.9L92.7,66.9c4.8,21.1,21.2,37.6,42.4,42.4l0,0c8.2,1.9,8.2,13.6,0,15.5l0,0
				c-21.1,4.7-37.6,21.2-42.4,42.4l0,0c-1.9,8.2-13.6,8.2-15.5,0l0,0c-4.7-21.1-21.2-37.6-42.4-42.4l0,0c-8.2-1.9-8.2-13.6,0-15.5
				l0,0C56,104.5,72.4,88,77.2,66.9l0,0C79.1,58.6,90.8,58.6,92.7,66.9z"/>
			<path class="st3" d="M84.9,181.4c-7.7,0-14-5.1-15.7-12.6c-4-17.9-18.2-32.1-36.2-36.2c-7.5-1.7-12.6-8-12.6-15.7
				s5.1-14,12.6-15.7C51,97.2,65.2,83,69.2,65.1c1.7-7.5,8-12.6,15.7-12.6c7.7,0,14,5.1,15.7,12.6v0c4,17.9,18.2,32.1,36.2,36.2
				c7.5,1.7,12.6,8,12.6,15.7s-5.1,14-12.6,15.7c-17.9,4-32.1,18.2-36.2,36.2C99,176.4,92.6,181.4,84.9,181.4z M92.7,66.9l-8,1.7
				c-4.9,24.2-23.9,43.2-48,48.6c24.1,4.9,43.1,23.9,48.6,48c4.9-24.1,23.9-43.2,48-48.6c-24.1-4.9-43.2-23.9-48.6-48L92.7,66.9z"/>
		</g>
	</g>
	<g>
		<g class="st1">
			<path class="st2" d="M271.9,66.5l13.9,62c11.2,49.8,50.1,88.7,99.9,99.9l62,13.9c8.3,1.9,8.3,13.6,0,15.5l-62,13.9
				c-49.8,11.2-88.7,50.1-99.9,99.9l-13.9,62c-1.9,8.3-13.6,8.3-15.5,0l-13.9-62c-11.2-49.8-50.1-88.7-99.9-99.9l-62-13.9
				c-8.3-1.9-8.3-13.6,0-15.5l62-13.9c49.8-11.2,88.7-50.1,99.9-99.9l13.9-62C258.2,58.2,270,58.2,271.9,66.5z"/>
			<path class="st3" d="M264.1,447.5c-7.5,0-13.7-4.9-15.3-12.3l-13.9-62c-10.5-46.6-47.4-83.5-94-94l-62-13.9
				c-7.3-1.7-12.3-7.8-12.3-15.3s4.9-13.7,12.3-15.3l62-13.9c46.6-10.5,83.5-47.4,94-94l13.9-62c1.7-7.3,7.8-12.3,15.3-12.3
				c7.5,0,13.7,4.9,15.3,12.3l13.9,62c10.5,46.6,47.4,83.5,94,94l62,13.9c7.3,1.7,12.3,7.8,12.3,15.3s-4.9,13.7-12.3,15.3l-62,13.9
				c-46.6,10.5-83.5,47.4-94,94l-13.9,62C277.8,442.6,271.6,447.5,264.1,447.5z M264.2,68L250,130.1c-11.8,52.4-53.3,94-105.7,105.8
				l-62,13.9l62,14.2c52.4,11.8,94,53.3,105.7,105.8l13.9,62l14.3-62c11.8-52.4,53.3-94,105.7-105.8l62-13.9l-62-14.2
				c-52.4-11.8-93.9-53.3-105.7-105.8l-13.9-62C264.3,68,264.2,68,264.2,68z"/>
		</g>
		<g class="st1">
			<path class="st2" d="M110.3,66.5L110.3,66.5c4.8,21.2,21.3,37.7,42.5,42.5l0,0c8.3,1.9,8.3,13.6,0,15.5l0,0
				c-21.2,4.8-37.7,21.3-42.5,42.5l0,0c-1.9,8.3-13.6,8.3-15.5,0l0,0c-4.8-21.2-21.3-37.7-42.5-42.5l0,0c-8.3-1.9-8.3-13.6,0-15.5
				l0,0c21.2-4.8,37.7-21.3,42.5-42.5l0,0C96.7,58.2,108.4,58.2,110.3,66.5z"/>
			<path class="st3" d="M102.5,180.8c-7.5,0-13.7-4.9-15.3-12.3c-4.1-18.1-18.4-32.5-36.6-36.6c-7.3-1.7-12.3-7.8-12.3-15.3
				c0-7.5,4.9-13.7,12.3-15.3c18.2-4.1,32.5-18.4,36.6-36.6c1.7-7.3,7.8-12.3,15.3-12.3c7.5,0,13.7,4.9,15.3,12.3l0,0
				c4.1,18.1,18.4,32.5,36.6,36.6c7.3,1.7,12.3,7.8,12.3,15.3c0,7.5-4.9,13.7-12.3,15.3c-18.2,4.1-32.5,18.4-36.6,36.6
				C116.2,175.9,110.1,180.8,102.5,180.8z M102.6,68C97,92.2,78,111.1,54,116.5c24,5.7,42.9,24.7,48.3,48.7
				c5.7-24,24.7-43,48.7-48.3c-24-5.7-43-24.7-48.3-48.7l0,0C102.7,68,102.6,68,102.6,68z"/>
		</g>
	</g>
</g>
<g id="Layer_2" class="st0">
	<g class="st1">
		<g id="XMLID_00000041285015285474287440000004493354695878237881_">
			<g>
				<g id="XMLID_00000132792097710989079520000001592360259749544353_">
					<g>
						<path class="st4" d="M33.4,145.2c110.1,0,201.9-80.5,219.4-185.7h159.6C483-40.6,540.6,17,540.6,87.6v324.7
							c0,70.7-57.5,128.2-128.2,128.2h-28.9c7.9-23.6,12.1-48.6,12.1-74.6c0-136.9-117.2-248.3-261.3-248.3
							c-67.2,0-128.5,24.2-174.9,63.9V132.5C-17.4,140.7,7.6,145.2,33.4,145.2z"/>
						<path class="st5" d="M361.5,540.6h21.9c-1,3.5-2.3,6.9-3.6,10.3h-22.5C359,547.5,360.3,544.1,361.5,540.6z"/>
						<path class="st5" d="M241.7,540.6h119.8c-1.2,3.5-2.6,6.9-4.1,10.3H242v-1.7C242,546.3,241.9,543.5,241.7,540.6z"/>
						<path class="st5" d="M357.4,550.9h22.5c-1.3,3.4-2.7,6.9-4.3,10.3h-22.9C354.4,557.8,356,554.4,357.4,550.9z"/>
						<path class="st5" d="M242,550.9h115.4c-1.4,3.5-3,6.9-4.8,10.3H241.4C241.8,557.9,241.9,554.5,242,550.9z"/>
						<path class="st5" d="M255.3-61.2h157.1c82.1,0,148.9,66.8,148.9,148.9v324.7c0,82.2-66.8,148.9-148.9,148.9h-36.8
							c1.7-3.4,3-6.9,4.3-10.3h32.5c76.5,0,138.6-62,138.6-138.6V87.6c0-76.5-62.1-138.6-138.6-138.6H254.2
							C254.8-54.3,255.1-57.7,255.3-61.2z"/>
						<path class="st5" d="M254.2-50.9h158.1c76.5,0,138.6,62.1,138.6,138.6v324.7c0,76.6-62.1,138.6-138.6,138.6h-32.5
							c1.3-3.4,2.6-6.8,3.6-10.3h28.9c70.7,0,128.2-57.5,128.2-128.2V87.6C540.6,17,483-40.6,412.4-40.6H252.8
							C253.4-44,253.9-47.4,254.2-50.9z"/>
						<path class="st5" d="M254.2-50.9c-0.3,3.5-0.8,6.9-1.4,10.3h-21c0.7-3.4,1.2-6.8,1.7-10.3H254.2z"/>
						<path class="st5" d="M242,550.9c-0.1,3.6-0.2,7-0.6,10.3h-5.2c0.4-3.4,0.5-6.8,0.6-10.3H242z"/>
						<path class="st5" d="M241.7,540.6c0.2,2.9,0.3,5.8,0.3,8.7v1.7h-5.2c0-0.5,0-1.1,0-1.7c0-2.9-0.1-5.8-0.3-8.7H241.7z"/>
						<path class="st5" d="M231.1,560.7c0.4-3.3,0.5-6.5,0.6-9.8h5.2c-0.1,3.5-0.2,6.9-0.6,10.3H231
							C231.1,561,231.1,560.9,231.1,560.7z"/>
						<path class="st5" d="M255.3-61.2c-0.2,3.5-0.5,6.9-1,10.3h-20.8c0.5-3.4,0.8-6.8,1-10.3H255.3z"/>
						<path class="st5" d="M231.7,550.8v-1.6c0-2.8-0.1-5.6-0.3-8.3v-0.1c0-0.1,0-0.2,0-0.3h5.2c0.2,2.9,0.3,5.8,0.3,8.7
							c0,0.5,0,1.1,0,1.7h-5.2V550.8z"/>
						<path class="st6" d="M231.4,540.6H87.6c-63.9,0-117.2-47.2-126.8-108.6c0.6-0.3,1.3-0.7,2-1.1c28.8-17.3,62.7-26.4,98.1-26.4
							C151.3,404.4,226.1,464.2,231.4,540.6z"/>
						<path class="st7" d="M231.8-40.6c-17.3,93.7-99.6,165-198.4,165c-26.2,0-51.1-5-74-14.2V87.6C-40.6,17,17-40.6,87.6-40.6
							H231.8z"/>
						<path class="st8" d="M33.4,124.5c98.7,0,181.1-71.3,198.4-165h21C235.3,64.7,143.5,145.2,33.4,145.2c-25.9,0-50.8-4.4-74-12.7
							v-22.1C-17.7,119.5,7.2,124.5,33.4,124.5z"/>
						<path class="st9" d="M134.3,238.3c-68.8,0-131.1,27.5-174.9,71.6v-28.4c46.4-39.7,107.7-63.9,174.9-63.9
							c144,0,261.3,111.4,261.3,248.3c0,26-4.2,51-12.1,74.6h-21.9c8.7-23.4,13.3-48.5,13.3-74.6C374.9,340.4,267,238.3,134.3,238.3
							z"/>
						<path class="st10" d="M61,399.2c-37.6,0-72.3,10-100.8,27.1c-0.2-1.9-0.4-3.7-0.4-5.7C-10.3,403.2,24.5,394,61,394
							c95.8,0,175.3,64.3,180.8,146.2c0,0.1,0,0.2,0,0.3h-5.2C231.3,461.7,154.7,399.2,61,399.2z"/>
						<path class="st10" d="M231.4,540.6c-5.3-76.4-80.1-136.2-170.4-136.2c-35.4,0-69.3,9.1-98.1,26.4c-0.6,0.4-1.3,0.8-2,1.1
							c-0.3-1.9-0.5-3.7-0.7-5.6c28.5-17.1,63.2-27.1,100.8-27.1c93.7,0,170.3,62.5,175.6,141.3H231.4z"/>
						<path class="st9" d="M134.3,238.3c132.7,0,240.6,102.1,240.6,227.6c0,26.1-4.7,51.2-13.3,74.6H241.7c0-0.1,0-0.2,0-0.3
							c-5.5-82-85-146.2-180.8-146.2c-36.4,0-71.3,9.2-101.2,26.6c-0.2-2.7-0.3-5.5-0.3-8.3V309.9C3.2,265.8,65.5,238.3,134.3,238.3
							z"/>
						<path class="st5" d="M-39.1,431.9c9.5,61.5,62.8,108.6,126.8,108.6h143.7c0,0.1,0,0.2,0,0.3v0.1c0.2,2.7,0.3,5.5,0.3,8.3v1.6
							v0.1h-144c-67.7,0-124-48.5-136.2-112.7c0.6-0.5,1.3-0.9,2.1-1.4C-44.1,435.1-41.6,433.5-39.1,431.9z"/>
						<path class="st5" d="M-50.9,87.6c0-76.5,62.1-138.6,138.6-138.6h145.8c-0.4,3.5-0.9,6.9-1.7,10.3H87.6
							C17-40.6-40.6,17-40.6,87.6v22.7c-3.5-1.2-6.9-2.8-10.3-4.4V87.6z"/>
						<path class="st5" d="M-50.9,321v-30c3.4-3.2,6.8-6.3,10.3-9.4v28.4C-44.2,313.4-47.7,317.2-50.9,321z"/>
						<path class="st5" d="M-50.9,128.5v-22.7c3.4,1.7,6.8,3.2,10.3,4.4v22.1C-44.1,131.3-47.5,130-50.9,128.5z"/>
						<path class="st5" d="M-40.6,281.6c-3.5,3.1-6.9,6.2-10.3,9.4V128.5c3.4,1.4,6.8,2.8,10.3,3.9V281.6z"/>
						<path class="st5" d="M-48.5,438.2c-0.3-1.9-0.6-3.7-0.9-5.7c3.1-2.2,6.3-4.2,9.6-6.2c0.2,1.9,0.4,3.7,0.7,5.6
							c-2.5,1.6-5,3.2-7.3,4.9C-47.2,437.3-47.9,437.7-48.5,438.2z"/>
						<path class="st5" d="M87.6,561.2c-70.8,0-130.3-49.7-145.2-116.2c0.6-0.6,1.3-1.1,2-1.7c2.3-1.8,4.6-3.5,7-5.2
							C-36.3,502.4,20,550.9,87.6,550.9h144c-0.1,3.3-0.2,6.5-0.6,9.8c0,0.2,0,0.3-0.1,0.5H87.6z"/>
						<path class="st5" d="M-50.1,426.7c2.4-1.8,5-3.3,7.6-4.9c0.7-0.4,1.4-0.9,2.3-1.2c0,2,0.2,3.8,0.4,5.7c-3.3,2-6.5,4-9.6,6.2
							C-49.8,430.7-50,428.7-50.1,426.7z"/>
						<path class="st5" d="M-42.5,421.9c-2.6,1.6-5.2,3.1-7.6,4.9c-0.5-4.8-0.8-9.5-0.8-14.4V321c3.2-3.8,6.7-7.6,10.3-11.1v102.4
							c0,2.8,0.1,5.6,0.3,8.3C-41.1,420.9-41.8,421.5-42.5,421.9z"/>
						<path class="st5" d="M-61.2,87.6C-61.2,5.6,5.6-61.2,87.6-61.2h146.8c-0.2,3.5-0.5,6.9-1,10.3H87.6
							C11.2-50.9-50.9,11.2-50.9,87.6v18.2c-3.5-1.4-6.9-3.2-10.3-5.1V87.6z"/>
						<path class="st5" d="M-61.2,124v-23.2c3.4,1.9,6.8,3.6,10.3,5.1v22.7C-54.4,127.1-57.8,125.6-61.2,124z"/>
						<path class="st5" d="M-61.2,124c3.4,1.7,6.8,3.1,10.3,4.6V291c-3.5,3.4-7,6.8-10.3,10.5V124z"/>
						<path class="st5" d="M-61.2,301.4c3.3-3.6,6.8-7,10.3-10.5v30c-3.7,4.1-7.1,8.4-10.3,12.7V301.4z"/>
						<path class="st5" d="M-52.4,428.3c-2.6,1.7-5.1,3.5-7.5,5.4c-0.9-6.9-1.4-14.1-1.4-21.3v-78.6c3.2-4.3,6.6-8.6,10.3-12.7v91.4
							c0,4.9,0.3,9.6,0.8,14.4C-50.9,427.3-51.6,427.8-52.4,428.3z"/>
						<path class="st5" d="M-59.8,433.7c2.4-1.9,4.9-3.7,7.5-5.4c0.7-0.5,1.4-1,2.3-1.6c0.1,2,0.3,3.9,0.6,5.8
							c-3.2,2.2-6.3,4.4-9.3,6.8C-59.1,437.5-59.5,435.5-59.8,433.7z"/>
						<path class="st5" d="M-57.5,445c-0.5-1.9-0.9-3.7-1.2-5.7c3-2.4,6.1-4.7,9.3-6.8c0.3,2,0.6,3.8,0.9,5.7
							c-2.5,1.7-4.8,3.4-7,5.2C-56.2,443.9-56.9,444.4-57.5,445z"/>
					</g>
				</g>
			</g>
		</g>
	</g>
</g>
<g id="Layer_3" class="st0">
	<path class="st11" d="M143.3,10C69.8,10,10,69.8,10,143.3v213.3C10,430.2,69.8,490,143.3,490h213.3c73.5,0,133.3-59.8,133.3-133.3
		V143.3C490,69.8,430.2,10,356.7,10H143.3z M143.3,63.3h213.3c44.1,0,80,35.9,80,80v213.3c0,44.1-35.9,80-80,80H143.3
		c-44.1,0-80-35.9-80-80V143.3C63.3,99.2,99.2,63.3,143.3,63.3z M383.3,90c-14.7,0-26.7,11.9-26.7,26.7s11.9,26.7,26.7,26.7
		c14.7,0,26.7-11.9,26.7-26.7S398.1,90,383.3,90z M250,116.7c-73.5,0-133.3,59.8-133.3,133.3S176.5,383.3,250,383.3
		S383.3,323.5,383.3,250S323.5,116.7,250,116.7z M250,170c44.1,0,80,35.9,80,80s-35.9,80-80,80s-80-35.9-80-80S205.9,170,250,170z"
		/>
</g>
<g id="Layer_4" class="st0">
	<g id="XMLID_00000132055259158109525530000017384165151687671231_" class="st1">
		<g>
			<path d="M228.1,362.6l-19.2,19.2l-3,2.6h-13.5v13.5l-2.7,3.1l-28.8,28.8l-3,2.6h-23.1v23.1l-2.7,3.1l-28.8,28.8l-3,2.6H35
				l-3.1-2.6l-19.2-19.2L10,465v-65.4l2.6-3L192.7,217c-6.2-16.7-9.9-34.6-9.9-53.4C182.8,78.8,251.7,10,336.4,10
				C421,10,490,78.8,490,163.6s-69,153.6-153.6,153.6c-18.8,0-36.7-3.6-53.4-9.9l-35.7,36.1l-3,2.6h-13.5v13.5L228.1,362.6z
				 M202,163.6c0,55.8,33.9,103.5,82.1,123.9c0.1,0.1,0.3,0.3,0.4,0.4c16,6.6,33.3,10.1,51.9,10.1c74.2,0,134.4-60.1,134.4-134.4
				S410.6,29.2,336.4,29.2C262.1,29.2,202,89.2,202,163.6z M264.1,299.3c-26.9-14.4-48.9-36.5-63.3-63.3L29.2,407.8v30.2
				l149.3-149.7c1.3-1.3,3-2.2,4.8-2.6c4.4-1.4,9.1,0.5,11.3,4.5c2.1,4,1.2,9-2.2,11.9l-159,158.9l9.6,9.6h49.2l23.5-23.4v-34.2
				h34.1l23.5-23.4v-24.6h24.5l13.9-13.8v-24.6h24.5L264.1,299.3z"/>
			<path class="st12" d="M261.7,102.5l135.8,135.8l6.6,6.9l6.9-6.9c41.3-41.1,41.3-108.2,0-149.3c-20.5-20.6-47.6-31-74.6-31
				c-27.1,0-54.1,10.4-74.7,31l-6.9,6.9L261.7,102.5z M202,163.6c0-74.3,60.1-134.4,134.4-134.4c74.2,0,134.4,60.1,134.4,134.4
				S410.6,298,336.4,298c-18.6,0-35.9-3.5-51.9-10.1c-0.1-0.1-0.3-0.3-0.4-0.4C235.9,267.1,202,219.3,202,163.6z"/>
			<path class="st13" d="M211.6,326.8v24.6l-13.9,13.8h-24.5v24.6l-23.5,23.4h-34.1v34.2l-23.5,23.4H43l-9.6-9.6l159-158.9
				c3.4-3,4.3-7.9,2.2-11.9c-2.2-4-6.9-6-11.3-4.5c-1.8,0.4-3.5,1.3-4.8,2.6L29.2,438.1v-30.2l171.5-171.9
				c14.4,26.9,36.5,48.9,63.3,63.3l-27.9,27.5H211.6z"/>
			<path d="M283.3,97L403,216.7c27-34,26.1-82.9-5.4-114.3c-16.9-17-39-25.3-61.1-25.3C317.4,77.2,299,84.5,283.3,97z M397.5,238.3
				L261.7,102.5l-6.9-6.6l6.9-6.9c20.6-20.6,47.6-31,74.7-31c27,0,54.1,10.4,74.6,31c41.3,41.1,41.3,108.2,0,149.3l-6.9,6.9
				L397.5,238.3z"/>
		</g>
		<g>
		</g>
	</g>
</g>
<g id="Layer_5">
	<g>
		<rect class="st14" width="500" height="500"/>
		<g>
			<path class="st13" d="M217.9,317.1c-2.7,0-5.1-0.9-7.1-2.6c-2-1.7-3-3.8-3-6.3c0-1.9,0-3.8,0-5.6s0-3.6,0-5.2
				c2-10.9,6-20.9,11.9-29.8c5.9-8.9,12.8-17.1,20.7-24.6c7.9-7.5,15.6-14.5,23-21.1c7.4-6.6,13.7-13.1,18.9-19.5
				c5.2-6.4,8-12.9,8.3-19.5c0.7-6.9-0.8-12.7-4.3-17.4c-3.5-4.7-8.4-8.3-14.7-10.8c-6.2-2.5-12.9-3.8-20-3.8
				c-13.5,0-24.1,3-31.8,8.9c-7.7,5.9-13.3,14.7-16.7,26.3c-1,3.4-2.7,6.2-5.1,8.2c-2.4,2-5.9,3-10.6,3H126c-3.4,0-6.2-1.2-8.6-3.5
				c-2.4-2.3-3.5-5.4-3.5-9.1c0.3-12.5,3.6-24.7,9.8-36.6c6.2-11.9,15.3-22.8,27.3-32.6c12-9.9,26.9-17.7,44.7-23.5
				c17.8-5.8,38.6-8.7,62.1-8.7c25.3,0,46.2,2.8,62.9,8.4c16.7,5.6,29.8,13,39.4,22.1c9.6,9.1,16.4,18.7,20.5,28.9
				c4,10.2,5.9,19.6,5.6,28.4c-0.7,11.3-3.2,21.4-7.6,30.5c-4.4,9.1-9.8,17.4-16.4,25.1c-6.6,7.7-13.5,15-20.7,22.1
				c-7.2,7-13.9,14.1-20,21.1c-6.1,7-10.6,14.5-13.6,22.3c-0.7,2.2-1.4,4.3-2,6.3c-0.7,2-1.2,4.1-1.5,6.3c-2,4.1-4.1,7.1-6.3,9.1
				c-2.2,2-5.3,3.1-9.3,3.1H217.9z M218.9,416.6c-3.7,0-6.7-1.2-9.1-3.5c-2.4-2.3-3.5-5.1-3.5-8.2v-53.5c0-3.1,1.2-5.9,3.5-8.2
				c2.4-2.3,5.4-3.5,9.1-3.5h64.7c3.7,0,6.8,1.2,9.3,3.5c2.5,2.3,3.8,5.1,3.8,8.2v53.5c0,3.1-1.3,5.9-3.8,8.2
				c-2.5,2.3-5.6,3.5-9.3,3.5H218.9z"/>
		</g>
	</g>
</g>
</svg>
