<?xml version="1.0" encoding="utf-8"?>
<!-- Generator: Adobe Illustrator 26.5.2, SVG Export Plug-In . SVG Version: 6.00 Build 0)  -->
<svg version="1.1" xmlns="http://www.w3.org/2000/svg" xmlns:xlink="http://www.w3.org/1999/xlink" x="0px" y="0px"
	 viewBox="0 0 500 500" style="enable-background:new 0 0 500 500;" xml:space="preserve">
<style type="text/css">
	.st0{display:none;opacity:0.3;}
	.st1{display:inline;}
	.st2{fill:#4C0F19;}
	.st3{fill:#FFFFFF;}
	.st4{fill:#1E1E1E;}
	.st5{fill:#BFBFBF;}
	.st6{display:none;}
	.st7{display:inline;fill:#FFFFFF;}
	.st8{display:inline;fill:#1E1E1E;}
	.st9{display:none;fill:#FFFFFF;}
</style>
<g id="Layer_1" class="st0">
	<g class="st1">
		<rect class="st2" width="500" height="500"/>
	</g>
	<g id="XMLID_00000096016947031551473520000012412727928110112946_">
		<g id="XMLID_00000174570764224048578620000009377532036000613248_" class="st1">
			<g>
				<path class="st3" d="M470.8,306.6c14.6-14.6,23.7-34.9,23.7-57.2c0-44.7-36.2-80.9-80.9-80.9h-77.2V163h77.2
					c47.6,0,86.4,38.8,86.4,86.4s-38.8,86.4-86.4,86.4h-77.2v-5.5h77.2C436,330.3,456.2,321.3,470.8,306.6z"/>
				<path class="st3" d="M494.5,249.4c0,22.4-9,42.6-23.7,57.2s-34.9,23.7-57.2,23.7h-77.2v-5.5h77.2c41.6,0,75.4-33.8,75.4-75.4
					s-33.8-75.4-75.4-75.4h-77.2v-5.5h77.2C458.3,168.5,494.5,204.7,494.5,249.4z"/>
				<path class="st4" d="M413.6,174.1c41.6,0,75.4,33.8,75.4,75.4s-33.8,75.4-75.4,75.4h-77.2V174.1H413.6z M432.4,256.8
					c5-2.9,5-10.2,0-13.1l-23.3-13.5c-5-2.9-11.3,0.7-11.3,6.5v26.9c0,5.8,6.3,9.4,11.3,6.5L432.4,256.8z"/>
				<path class="st3" d="M432.4,243.7c5,2.9,5,10.2,0,13.1l-23.3,13.5c-5,2.9-11.3-0.7-11.3-6.5v-26.9c0-5.8,6.3-9.4,11.3-6.5
					L432.4,243.7z"/>
				<path class="st3" d="M336.4,335.8v77.8c0,47.6-38.8,86.4-86.4,86.4c-47.6,0-86.4-38.8-86.4-86.4v-77.8h5.5v77.8
					c0,44.7,36.2,80.9,80.9,80.9s80.9-36.2,80.9-80.9v-77.8H336.4z"/>
				<rect x="330.9" y="330.3" class="st3" width="5.5" height="5.5"/>
				<rect x="330.9" y="324.8" class="st3" width="5.5" height="5.5"/>
				<rect x="330.9" y="174.1" class="st4" width="5.5" height="150.7"/>
				<rect x="330.9" y="168.5" class="st3" width="5.5" height="5.5"/>
				<rect x="330.9" y="163" class="st3" width="5.5" height="5.5"/>
				<path class="st3" d="M336.4,86.4V163h-5.5V86.4c0-22.4-9-42.6-23.7-57.2S272.4,5.5,250,5.5c-44.7,0-80.9,36.2-80.9,80.9V163
					h-5.5V86.4C163.6,38.8,202.4,0,250,0C297.7,0,336.4,38.8,336.4,86.4z"/>
				<path class="st3" d="M330.9,335.8v77.8c0,44.7-36.2,80.9-80.9,80.9s-80.9-36.2-80.9-80.9v-77.8h5.5v77.8
					c0,41.5,33.8,75.4,75.4,75.4c41.6,0,75.4-33.8,75.4-75.4v-77.8H330.9z"/>
				<rect x="325.4" y="330.3" class="st3" width="5.5" height="5.5"/>
				<rect x="325.4" y="324.8" class="st3" width="5.5" height="5.5"/>
				<rect x="325.4" y="174.1" class="st4" width="5.5" height="150.7"/>
				<rect x="325.4" y="168.5" class="st3" width="5.5" height="5.5"/>
				<rect x="325.4" y="163" class="st3" width="5.5" height="5.5"/>
				<path class="st3" d="M330.9,86.4V163h-5.5V86.4c0-41.5-33.8-75.4-75.4-75.4c-41.5,0-75.4,33.8-75.4,75.4V163h-5.5V86.4
					c0-44.7,36.2-80.9,80.9-80.9c22.4,0,42.6,9,57.2,23.7S330.9,64.1,330.9,86.4z"/>
				<path class="st4" d="M325.4,335.8v77.8c0,41.5-33.8,75.4-75.4,75.4c-41.5,0-75.4-33.8-75.4-75.4v-77.8H325.4z M267.9,411.8
					c2.9-5-0.7-11.3-6.5-11.3h-26.9c-5.8,0-9.4,6.3-6.5,11.3l13.5,23.3c2.9,5,10.2,5,13.1,0L267.9,411.8z"/>
				<rect x="174.6" y="330.3" class="st4" width="150.7" height="5.5"/>
				<rect x="174.6" y="324.8" class="st4" width="150.7" height="5.5"/>
				<path class="st4" d="M325.4,174.1v150.7H174.6V174.1H325.4z M275.6,268.5c4.7-5.7,7.5-13,7.5-20.9c0-18.2-14.9-33.1-33.1-33.1
					c-11.3,0-21.4,5.7-27.3,14.4c0,0-0.1,0.1-0.1,0.1c-4.7,5.7-7.5,13-7.5,20.9c0,18.2,14.9,33.1,33.1,33.1
					c11.4,0,21.4-5.7,27.3-14.4C275.5,268.6,275.6,268.5,275.6,268.5z"/>
				<rect x="174.6" y="168.5" class="st4" width="150.7" height="5.5"/>
				<rect x="174.6" y="163" class="st4" width="150.7" height="5.5"/>
				<path class="st4" d="M325.4,86.4V163H174.6V86.4c0-41.5,33.8-75.4,75.4-75.4C291.6,11,325.4,44.9,325.4,86.4z M264.3,102.3
					c5.8,0,9.4-6.3,6.5-11.3l-13.4-23.3c-2.9-5-10.2-5-13.1,0L230.9,91c-2.9,5,0.7,11.3,6.5,11.3H264.3z"/>
				<path class="st4" d="M275.6,268.5c3.6-5.3,5.7-11.7,5.7-18.5c0-18.2-14.8-33.1-33.1-33.1c-10.3,0-19.4,4.7-25.5,12
					c6-8.7,16-14.4,27.3-14.4c18.2,0,33.1,14.9,33.1,33.1C283.1,255.5,280.3,262.8,275.6,268.5z"/>
				<path class="st4" d="M281.3,250c0,6.8-2.1,13.2-5.7,18.5c0,0-0.1,0.1-0.1,0.1c-6.1,7.4-15.2,12-25.5,12
					c-18.2,0-33.1-14.9-33.1-33.1c0-6.8,2.1-13.2,5.7-18.5c0,0,0.1-0.1,0.1-0.1c6.1-7.4,15.2-12,25.5-12
					C266.4,216.9,281.3,231.8,281.3,250z M272.2,263.6c4.3-7,5.4-11.4,5.4-16c0-7.6-3.1-14.5-8.1-19.5S257.6,220,250,220
					c-7.6,0-14.5,3.1-19.5,8.1l-2.7,3.3l-0.8,0.9c-5.1,8.1-6.5,12.7-6.5,17.7c0,7.6,3.1,14.5,8.1,19.5s11.9,8.1,19.5,8.1
					c9.6,0,18-4.9,23-12.3C271.5,264.7,271.9,264.1,272.2,263.6z"/>
				<path class="st4" d="M277.6,247.6c0,4.6-1.1,9-5.4,16c2.3-4,3.6-8.6,3.6-13.6c0-7.6-3.1-14.5-8.1-19.5c-5-5-11.9-8.1-19.5-8.1
					c-7.6,0-14.5,3.1-19.5,8.1c-0.3,0.3-0.6,0.6-0.8,0.9l2.7-3.3c5-5,11.9-8.1,19.5-8.1c7.6,0,14.5,3.1,19.5,8.1
					S277.6,240,277.6,247.6z"/>
				<path class="st4" d="M275.7,250c0,5-1.3,9.6-3.6,13.6c-0.3,0.6-0.7,1.1-1,1.7l-1.7,1.8c-5,5-11.9,8.1-19.5,8.1
					c-15.2,0-27.6-12.4-27.6-27.6c0-1.7,0.1-3.4,4.6-15.3l0.8-0.9c0.3-0.3,0.6-0.6,0.8-0.9c5-5,11.9-8.1,19.5-8.1
					c7.6,0,14.5,3.1,19.5,8.1C272.7,235.5,275.7,242.4,275.7,250z M266.6,262.1c3.4-3.9,5.4-8.9,5.4-14.5c0-12.2-9.9-22.1-22.1-22.1
					c-7.7,0-14.5,4-18.5,10c-3.4,3.9-5.4,8.9-5.4,14.5c0,12.2,9.9,22.1,22.1,22.1C255.9,272.1,262.7,268.1,266.6,262.1z"/>
				<path class="st4" d="M272.1,247.6c0,5.6-2.1,10.6-5.4,14.5c2.3-3.5,3.6-7.6,3.6-12.1c0-12.2-9.9-22.1-22.1-22.1
					c-6.6,0-12.6,2.9-16.6,7.6c3.9-6,10.7-10,18.5-10C262.2,225.5,272.1,235.4,272.1,247.6z"/>
				<path class="st5" d="M270.8,91c2.9,5-0.7,11.3-6.5,11.3h-26.9c-5.8,0-9.4-6.3-6.5-11.3l13.5-23.3c2.9-5,10.1-5,13.1,0L270.8,91z
					"/>
				<path class="st4" d="M269.5,267.1l1.7-1.8c-5,7.4-13.4,12.3-23,12.3c-7.6,0-14.5-3.1-19.5-8.1s-8.1-11.9-8.1-19.5
					c0-5,1.3-9.6,6.5-17.7c-4.5,11.9-4.6,13.5-4.6,15.3c0,15.2,12.4,27.6,27.6,27.6C257.6,275.2,264.5,272.1,269.5,267.1z"/>
				<path class="st3" d="M261.4,400.5c5.8,0,9.4,6.3,6.5,11.3l-13.5,23.3c-2.9,5-10.2,5-13.1,0l-13.5-23.3c-2.9-5,0.7-11.3,6.5-11.3
					H261.4z"/>
				<path class="st3" d="M270.2,250c0,4.4-1.3,8.6-3.6,12.1c-4,4.6-10,7.6-16.6,7.6c-12.2,0-22.1-9.9-22.1-22.1
					c0-4.4,1.3-8.6,3.6-12.1c4-4.6,10-7.6,16.6-7.6C260.3,227.9,270.2,237.8,270.2,250z"/>
				<path class="st4" d="M250,280.7c10.3,0,19.4-4.7,25.5-12c-6,8.7-16,14.4-27.3,14.4c-18.2,0-33.1-14.9-33.1-33.1
					c0-7.9,2.8-15.2,7.5-20.9c-3.6,5.3-5.7,11.7-5.7,18.5C216.9,265.8,231.8,280.7,250,280.7z"/>
				<path class="st3" d="M266.6,262.1c-3.9,6-10.7,10-18.5,10c-12.1,0-22.1-9.9-22.1-22.1c0-5.6,2.1-10.6,5.4-14.5
					c-2.3,3.5-3.6,7.6-3.6,12.1c0,12.2,9.9,22.1,22.1,22.1C256.6,269.6,262.6,266.7,266.6,262.1z"/>
				<rect x="169.1" y="330.3" class="st3" width="5.5" height="5.5"/>
				<rect x="169.1" y="324.8" class="st3" width="5.5" height="5.5"/>
				<rect x="169.1" y="174.1" class="st4" width="5.5" height="150.7"/>
				<rect x="169.1" y="168.5" class="st3" width="5.5" height="5.5"/>
				<rect x="169.1" y="163" class="st3" width="5.5" height="5.5"/>
				<rect x="163.6" y="330.3" class="st3" width="5.5" height="5.5"/>
				<rect x="163.6" y="324.8" class="st3" width="5.5" height="5.5"/>
				<rect x="163.6" y="174.1" class="st4" width="5.5" height="150.7"/>
				<rect x="163.6" y="168.5" class="st3" width="5.5" height="5.5"/>
				<rect x="163.6" y="163" class="st3" width="5.5" height="5.5"/>
				<path class="st3" d="M163.6,330.3v5.5H86.4C38.8,335.8,0,297.1,0,249.4S38.8,163,86.4,163h77.2v5.5H86.4
					c-44.7,0-80.9,36.2-80.9,80.9s36.2,80.9,80.9,80.9H163.6z"/>
				<path class="st3" d="M163.6,324.8v5.5H86.4c-44.7,0-80.9-36.2-80.9-80.9s36.2-80.9,80.9-80.9h77.2v5.5H86.4
					c-41.5,0-75.4,33.8-75.4,75.4s33.8,75.4,75.4,75.4H163.6z"/>
				<path class="st4" d="M163.6,174.1v150.7H86.4C44.9,324.8,11,291,11,249.4s33.8-75.4,75.4-75.4H163.6z M99.6,260.8v-26.9
					c0-5.8-6.3-9.4-11.4-6.5l-23.3,13.5c-5,2.9-5,10.2,0,13.1l23.3,13.5C93.2,270.2,99.6,266.6,99.6,260.8z"/>
				<path class="st3" d="M99.6,233.9v26.9c0,5.8-6.3,9.4-11.4,6.5l-23.3-13.5c-5-2.9-5-10.2,0-13.1l23.3-13.5
					C93.2,224.4,99.6,228.1,99.6,233.9z"/>
			</g>
			<g>
			</g>
		</g>
	</g>
</g>
<g id="Layer_2" class="st6">
	<g id="XMLID_00000073709295426629663480000003036922088338434458_">
		<g id="XMLID_00000128459067494634915120000010829270210709905086_" class="st1">
			<g>
				<path class="st3" d="M466.4,319.3c17.7-17.7,28.7-42.2,28.7-69.3c0-54.1-43.9-98-98-98h-44.1v-4.9h44.1
					c56.8,0,102.9,46.2,102.9,102.9s-46.2,102.9-102.9,102.9h-44.1V348h44.1C424.1,348,448.6,337.1,466.4,319.3z"/>
				<path class="st3" d="M495.1,250c0,27.1-11,51.6-28.7,69.3c-17.7,17.7-42.2,28.7-69.3,28.7h-44.1v-4.9h44.1
					c51.4,0,93.1-41.8,93.1-93.1s-41.8-93.1-93.1-93.1h-44.1V152h44.1C451.2,152,495.1,195.9,495.1,250z"/>
				<path class="st3" d="M352.9,352.9v44.1c0,56.8-46.2,102.9-102.9,102.9s-102.9-46.2-102.9-102.9v-44.1h4.9v44.1
					c0,54.1,43.9,98,98,98s98-43.9,98-98v-44.1H352.9z"/>
				<rect x="348" y="348" class="st3" width="4.9" height="4.9"/>
				<rect x="348" y="343.1" class="st3" width="4.9" height="4.9"/>
				<rect x="348" y="152" class="st3" width="4.9" height="4.9"/>
				<rect x="348" y="147.1" class="st3" width="4.9" height="4.9"/>
				<path class="st3" d="M352.9,102.9v44.1H348v-44.1c0-27.1-11-51.6-28.7-69.3C301.6,15.9,277.1,4.9,250,4.9c-54.1,0-98,43.9-98,98
					v44.1h-4.9v-44.1C147.1,46.2,193.2,0,250,0S352.9,46.2,352.9,102.9z"/>
				<path class="st3" d="M348,352.9v44.1c0,54.1-43.9,98-98,98s-98-43.9-98-98v-44.1h4.9v44.1c0,51.4,41.8,93.1,93.1,93.1
					s93.1-41.8,93.1-93.1v-44.1H348z"/>
				<rect x="343.1" y="348" class="st3" width="4.9" height="4.9"/>
				<rect x="343.1" y="343.1" class="st3" width="4.9" height="4.9"/>
				<rect x="343.1" y="152" class="st3" width="4.9" height="4.9"/>
				<rect x="343.1" y="147.1" class="st3" width="4.9" height="4.9"/>
				<path class="st3" d="M348,102.9v44.1h-4.9v-44.1c0-51.4-41.8-93.1-93.1-93.1s-93.1,41.8-93.1,93.1v44.1H152v-44.1
					c0-54.1,43.9-98,98-98c27.1,0,51.6,11,69.3,28.7C337.1,51.4,348,75.9,348,102.9z"/>
				<rect x="152" y="348" class="st3" width="4.9" height="4.9"/>
				<rect x="152" y="343.1" class="st3" width="4.9" height="4.9"/>
				<rect x="152" y="152" class="st3" width="4.9" height="4.9"/>
				<rect x="152" y="147.1" class="st3" width="4.9" height="4.9"/>
				<rect x="147.1" y="348" class="st3" width="4.9" height="4.9"/>
				<rect x="147.1" y="343.1" class="st3" width="4.9" height="4.9"/>
				<rect x="147.1" y="152" class="st3" width="4.9" height="4.9"/>
				<rect x="147.1" y="147.1" class="st3" width="4.9" height="4.9"/>
				<path class="st3" d="M147.1,348v4.9h-44.1C46.2,352.9,0,306.8,0,250s46.2-102.9,102.9-102.9h44.1v4.9h-44.1
					c-54.1,0-98,43.9-98,98s43.9,98,98,98H147.1z"/>
				<path class="st3" d="M147.1,343.1v4.9h-44.1c-54.1,0-98-43.9-98-98s43.9-98,98-98h44.1v4.9h-44.1c-51.4,0-93.1,41.8-93.1,93.1
					s41.8,93.1,93.1,93.1H147.1z"/>
			</g>
			<g>
			</g>
		</g>
	</g>
	<g id="XMLID_00000037674205895432967440000007614758088532800446_">
		<g id="XMLID_00000000924030869366381350000009913321665679146938_" class="st1">
			<g>
				<path class="st3" d="M-156.7,272.5c14.9-14.9,24.1-35.4,24.1-58.1c0-45.4-36.8-82.2-82.2-82.2h-78.5v-5.6h78.5
					c48.4,0,87.8,39.4,87.8,87.8s-39.4,87.8-87.8,87.8h-78.5v-5.6h78.5C-192.1,296.6-171.6,287.4-156.7,272.5z"/>
				<path class="st3" d="M-132.6,214.4c0,22.7-9.2,43.3-24.1,58.1c-14.9,14.9-35.4,24.1-58.1,24.1h-78.5V291h78.5
					c42.3,0,76.6-34.4,76.6-76.6s-34.3-76.6-76.6-76.6h-78.5v-5.6h78.5C-169.4,132.2-132.6,169-132.6,214.4z"/>
				<path class="st4" d="M-214.8,137.8c42.3,0,76.6,34.4,76.6,76.6s-34.3,76.6-76.6,76.6h-78.5V137.8H-214.8z M-195.8,221.9
					c5.1-3,5.1-10.3,0-13.3l-23.7-13.7c-5.1-3-11.5,0.7-11.5,6.6v27.3c0,5.9,6.4,9.6,11.5,6.6L-195.8,221.9z"/>
				<path class="st3" d="M-195.8,208.6c5.1,3,5.1,10.3,0,13.3l-23.7,13.7c-5.1,3-11.5-0.7-11.5-6.6v-27.3c0-5.9,6.4-9.6,11.5-6.6
					L-195.8,208.6z"/>
				<path class="st3" d="M-293.3,302.2v79.1c0,48.4-39.4,87.8-87.8,87.8c-48.4,0-87.8-39.4-87.8-87.8v-79.1h5.6v79.1
					c0,45.4,36.8,82.2,82.2,82.2s82.2-36.8,82.2-82.2v-79.1H-293.3z"/>
				<rect x="-298.9" y="296.6" class="st3" width="5.6" height="5.6"/>
				<rect x="-298.9" y="291" class="st3" width="5.6" height="5.6"/>
				<rect x="-298.9" y="137.8" class="st4" width="5.6" height="153.2"/>
				<rect x="-298.9" y="132.2" class="st3" width="5.6" height="5.6"/>
				<rect x="-298.9" y="126.6" class="st3" width="5.6" height="5.6"/>
				<path class="st3" d="M-293.3,48.7v77.9h-5.6V48.7c0-22.7-9.2-43.3-24.1-58.1c-14.9-14.9-35.4-24.1-58.1-24.1
					c-45.4,0-82.2,36.8-82.2,82.2v77.9h-5.6V48.7c0-48.4,39.4-87.8,87.8-87.8C-332.7-39.1-293.3,0.3-293.3,48.7z"/>
				<path class="st3" d="M-298.9,302.2v79.1c0,45.4-36.8,82.2-82.2,82.2s-82.2-36.8-82.2-82.2v-79.1h5.6v79.1
					c0,42.2,34.4,76.6,76.6,76.6c42.3,0,76.6-34.4,76.6-76.6v-79.1H-298.9z"/>
				<rect x="-304.5" y="296.6" class="st3" width="5.6" height="5.6"/>
				<rect x="-304.5" y="291" class="st3" width="5.6" height="5.6"/>
				<rect x="-304.5" y="137.8" class="st4" width="5.6" height="153.2"/>
				<rect x="-304.5" y="132.2" class="st3" width="5.6" height="5.6"/>
				<rect x="-304.5" y="126.6" class="st3" width="5.6" height="5.6"/>
				<path class="st3" d="M-298.9,48.7v77.9h-5.6V48.7c0-42.2-34.3-76.6-76.6-76.6c-42.2,0-76.6,34.4-76.6,76.6v77.9h-5.6V48.7
					c0-45.4,36.8-82.2,82.2-82.2c22.7,0,43.3,9.2,58.1,24.1C-308.1,5.5-298.9,26-298.9,48.7z"/>
				<path class="st4" d="M-304.5,302.2v79.1c0,42.2-34.3,76.6-76.6,76.6c-42.2,0-76.6-34.4-76.6-76.6v-79.1H-304.5z M-362.9,379.4
					c3-5.1-0.7-11.5-6.6-11.5h-27.3c-5.9,0-9.6,6.4-6.6,11.5l13.7,23.7c3,5.1,10.3,5.1,13.3,0L-362.9,379.4z"/>
				<rect x="-457.7" y="296.6" class="st4" width="153.2" height="5.6"/>
				<rect x="-457.7" y="291" class="st4" width="153.2" height="5.6"/>
				<path class="st4" d="M-304.5,137.8V291h-153.2V137.8H-304.5z M-355.1,233.8c4.8-5.8,7.6-13.2,7.6-21.3
					c0-18.5-15.1-33.6-33.6-33.6c-11.5,0-21.7,5.8-27.8,14.7c0,0-0.1,0.1-0.1,0.1c-4.8,5.8-7.6,13.2-7.6,21.3
					c0,18.5,15.1,33.6,33.6,33.6c11.5,0,21.7-5.8,27.8-14.7C-355.1,233.8-355.1,233.8-355.1,233.8z"/>
				<rect x="-457.7" y="132.2" class="st4" width="153.2" height="5.6"/>
				<rect x="-457.7" y="126.6" class="st4" width="153.2" height="5.6"/>
				<path class="st4" d="M-304.5,48.7v77.9h-153.2V48.7c0-42.2,34.4-76.6,76.6-76.6C-338.8-27.8-304.5,6.5-304.5,48.7z M-366.5,64.9
					c5.9,0,9.6-6.4,6.6-11.5l-13.6-23.7c-3-5.1-10.3-5.1-13.3,0l-13.7,23.7c-3,5.1,0.7,11.5,6.6,11.5H-366.5z"/>
				<path class="st4" d="M-355.1,233.8c3.6-5.4,5.8-11.8,5.8-18.8c0-18.5-15.1-33.6-33.6-33.6c-10.4,0-19.7,4.7-25.9,12.2
					c6.1-8.9,16.3-14.7,27.8-14.7c18.5,0,33.6,15.1,33.6,33.6C-347.5,220.6-350.3,228-355.1,233.8z"/>
				<path class="st4" d="M-349.3,215c0,6.9-2.1,13.4-5.8,18.8c0,0-0.1,0.1-0.1,0.1c-6.2,7.5-15.5,12.2-25.9,12.2
					c-18.5,0-33.6-15.1-33.6-33.6c0-6.9,2.1-13.4,5.8-18.8c0,0,0.1-0.1,0.1-0.1c6.2-7.5,15.5-12.2,25.9-12.2
					C-364.4,181.4-349.3,196.5-349.3,215z M-358.5,228.8c4.3-7.1,5.5-11.6,5.5-16.3c0-7.7-3.1-14.7-8.2-19.8
					c-5.1-5.1-12.1-8.2-19.8-8.2c-7.7,0-14.7,3.1-19.8,8.2l-2.7,3.4l-0.8,0.9c-5.2,8.2-6.6,12.9-6.6,18c0,7.7,3.1,14.7,8.2,19.8
					c5.1,5.1,12.1,8.2,19.8,8.2c9.8,0,18.3-5,23.3-12.5C-359.2,229.9-358.8,229.3-358.5,228.8z"/>
				<path class="st4" d="M-353.1,212.5c0,4.7-1.2,9.1-5.5,16.3c2.3-4.1,3.6-8.7,3.6-13.8c0-7.7-3.1-14.7-8.2-19.8
					c-5.1-5.1-12.1-8.2-19.8-8.2c-7.7,0-14.7,3.1-19.8,8.2c-0.3,0.3-0.6,0.6-0.9,0.9l2.7-3.4c5.1-5.1,12.1-8.2,19.8-8.2
					c7.7,0,14.7,3.1,19.8,8.2C-356.2,197.8-353.1,204.8-353.1,212.5z"/>
				<path class="st4" d="M-354.9,215c0,5-1.3,9.7-3.6,13.8c-0.3,0.6-0.7,1.1-1,1.7l-1.7,1.8c-5.1,5.1-12.1,8.2-19.8,8.2
					c-15.5,0-28-12.6-28-28c0-1.8,0.1-3.4,4.7-15.5l0.8-0.9c0.3-0.3,0.6-0.6,0.9-0.9c5.1-5.1,12.1-8.2,19.8-8.2
					c7.8,0,14.8,3.1,19.8,8.2C-358.1,200.3-354.9,207.2-354.9,215z M-364.2,227.2c3.4-3.9,5.5-9.1,5.5-14.7
					c0-12.4-10-22.4-22.4-22.4c-7.8,0-14.8,4-18.8,10.2c-3.4,3.9-5.5,9.1-5.5,14.7c0,12.4,10.1,22.4,22.4,22.4
					C-375.1,237.4-368.2,233.4-364.2,227.2z"/>
				<path class="st4" d="M-358.7,212.5c0,5.6-2.1,10.8-5.5,14.7c2.3-3.5,3.7-7.7,3.7-12.3c0-12.4-10-22.4-22.4-22.4
					c-6.7,0-12.8,3-16.9,7.7c4-6.1,10.9-10.2,18.8-10.2C-368.7,190.1-358.7,200.1-358.7,212.5z"/>
				<path class="st5" d="M-359.9,53.4c3,5.1-0.7,11.5-6.6,11.5h-27.3c-5.9,0-9.6-6.4-6.6-11.5l13.7-23.7c3-5.1,10.3-5.1,13.3,0
					L-359.9,53.4z"/>
				<path class="st4" d="M-361.3,232.3l1.7-1.8c-5,7.5-13.6,12.5-23.3,12.5c-7.7,0-14.7-3.1-19.8-8.2c-5.1-5.1-8.2-12.1-8.2-19.8
					c0-5,1.3-9.8,6.6-18c-4.6,12.1-4.7,13.7-4.7,15.5c0,15.5,12.6,28,28,28C-373.3,240.5-366.4,237.4-361.3,232.3z"/>
				<path class="st3" d="M-369.5,367.9c5.9,0,9.6,6.4,6.6,11.5l-13.7,23.7c-3,5.1-10.3,5.1-13.3,0l-13.7-23.7
					c-3-5.1,0.7-11.5,6.6-11.5H-369.5z"/>
				<path class="st3" d="M-360.5,215c0,4.5-1.3,8.7-3.7,12.3c-4.1,4.7-10.2,7.7-16.9,7.7c-12.4,0-22.4-10-22.4-22.4
					c0-4.5,1.3-8.7,3.7-12.3c4.1-4.7,10.2-7.7,16.9-7.7C-370.6,192.6-360.5,202.6-360.5,215z"/>
				<path class="st4" d="M-381.1,246.1c10.4,0,19.7-4.7,25.9-12.2c-6.1,8.9-16.2,14.7-27.8,14.7c-18.5,0-33.6-15.1-33.6-33.6
					c0-8.1,2.8-15.5,7.6-21.3c-3.6,5.4-5.8,11.8-5.8,18.8C-414.7,231-399.6,246.1-381.1,246.1z"/>
				<path class="st3" d="M-364.2,227.2c-4,6.1-10.9,10.2-18.8,10.2c-12.3,0-22.4-10-22.4-22.4c0-5.6,2.1-10.8,5.5-14.7
					c-2.3,3.5-3.7,7.7-3.7,12.3c0,12.4,10,22.4,22.4,22.4C-374.3,234.9-368.3,231.9-364.2,227.2z"/>
				<rect x="-463.3" y="296.6" class="st3" width="5.6" height="5.6"/>
				<rect x="-463.3" y="291" class="st3" width="5.6" height="5.6"/>
				<rect x="-463.3" y="137.8" class="st4" width="5.6" height="153.2"/>
				<rect x="-463.3" y="132.2" class="st3" width="5.6" height="5.6"/>
				<rect x="-463.3" y="126.6" class="st3" width="5.6" height="5.6"/>
				<rect x="-468.9" y="296.6" class="st3" width="5.6" height="5.6"/>
				<rect x="-468.9" y="291" class="st3" width="5.6" height="5.6"/>
				<rect x="-468.9" y="137.8" class="st4" width="5.6" height="153.2"/>
				<rect x="-468.9" y="132.2" class="st3" width="5.6" height="5.6"/>
				<rect x="-468.9" y="126.6" class="st3" width="5.6" height="5.6"/>
				<path class="st3" d="M-468.9,296.6v5.6h-78.5c-48.4,0-87.8-39.4-87.8-87.8s39.4-87.8,87.8-87.8h78.5v5.6h-78.5
					c-45.4,0-82.2,36.8-82.2,82.2s36.8,82.2,82.2,82.2H-468.9z"/>
				<path class="st3" d="M-468.9,291v5.6h-78.5c-45.4,0-82.2-36.8-82.2-82.2s36.8-82.2,82.2-82.2h78.5v5.6h-78.5
					c-42.2,0-76.6,34.4-76.6,76.6s34.4,76.6,76.6,76.6H-468.9z"/>
				<path class="st4" d="M-468.9,137.8V291h-78.5c-42.2,0-76.6-34.4-76.6-76.6s34.4-76.6,76.6-76.6H-468.9z M-533.9,225.9v-27.3
					c0-5.9-6.4-9.6-11.5-6.6l-23.6,13.7c-5.1,3-5.1,10.3,0,13.3l23.6,13.7C-540.4,235.5-533.9,231.8-533.9,225.9z"/>
				<path class="st3" d="M-533.9,198.6v27.3c0,5.9-6.4,9.6-11.5,6.6l-23.6-13.7c-5.1-3-5.1-10.3,0-13.3l23.6-13.7
					C-540.4,189-533.9,192.7-533.9,198.6z"/>
			</g>
			<g>
			</g>
		</g>
	</g>
	<g class="st1">
		<g id="XMLID_00000157308223297543881840000000031381715452656769_">
			<g>
				<path class="st4" d="M411.8,171.6c43.2,0,78.4,35.2,78.4,78.4s-35.2,78.4-78.4,78.4h-73.5V171.6H411.8z"/>
				<path class="st4" d="M161.8,171.6v156.9H88.2C45,328.4,9.8,293.2,9.8,250s35.2-78.4,78.4-78.4H161.8z"/>
				<path class="st4" d="M328.4,338.2v73.5c0,43.2-35.2,78.4-78.4,78.4s-78.4-35.2-78.4-78.4v-73.5H328.4z"/>
				<rect x="171.6" y="171.6" class="st4" width="156.9" height="156.9"/>
				<path class="st4" d="M328.4,88.2v73.5H171.6V88.2c0-43.2,35.2-78.4,78.4-78.4S328.4,45,328.4,88.2z"/>
				<rect x="171.6" y="328.4" class="st4" width="156.9" height="9.8"/>
				<rect x="171.6" y="161.8" class="st4" width="156.9" height="9.8"/>
				<rect x="161.8" y="171.6" class="st4" width="9.8" height="156.9"/>
				<rect x="328.4" y="171.6" class="st4" width="9.8" height="156.9"/>
				<path class="st3" d="M411.8,161.8c48.7,0,88.2,39.6,88.2,88.2s-39.6,88.2-88.2,88.2h-73.5v-9.8h73.5c43.2,0,78.4-35.2,78.4-78.4
					s-35.2-78.4-78.4-78.4h-73.5v-9.8H411.8z"/>
				<path class="st3" d="M338.2,338.2v73.5c0,48.7-39.6,88.2-88.2,88.2s-88.2-39.6-88.2-88.2v-73.5h9.8v73.5
					c0,43.2,35.2,78.4,78.4,78.4s78.4-35.2,78.4-78.4v-73.5H338.2z"/>
				<rect x="328.4" y="328.4" class="st3" width="9.8" height="9.8"/>
				<rect x="328.4" y="161.8" class="st3" width="9.8" height="9.8"/>
				<path class="st3" d="M338.2,88.2v73.5h-9.8V88.2c0-43.2-35.2-78.4-78.4-78.4S171.6,45,171.6,88.2v73.5h-9.8V88.2
					C161.8,39.6,201.3,0,250,0S338.2,39.6,338.2,88.2z"/>
				<rect x="161.8" y="328.4" class="st3" width="9.8" height="9.8"/>
				<rect x="161.8" y="161.8" class="st3" width="9.8" height="9.8"/>
				<path class="st3" d="M161.8,328.4v9.8H88.2C39.6,338.2,0,298.7,0,250s39.6-88.2,88.2-88.2h73.5v9.8H88.2
					C45,171.6,9.8,206.8,9.8,250s35.2,78.4,78.4,78.4H161.8z"/>
			</g>
			<g>
			</g>
		</g>
	</g>
	<g>
		<path class="st7" d="M105.7,237.8v24.4c0,5.3-5.7,8.6-10.3,5.9l-21.1-12.2c-4.6-2.6-4.6-9.2,0-11.9l21.1-12.2
			C99.9,229.2,105.7,232.5,105.7,237.8z"/>
		<path class="st7" d="M394.3,262.2v-24.4c0-5.3,5.7-8.6,10.3-5.9l21.1,12.2c4.6,2.6,4.6,9.2,0,11.9l-21.1,12.2
			C400.1,270.8,394.3,267.5,394.3,262.2z"/>
		<path class="st7" d="M237.8,394.3h24.4c5.3,0,8.6,5.7,5.9,10.3l-12.2,21.1c-2.6,4.6-9.2,4.6-11.9,0l-12.2-21.1
			C229.2,400.1,232.5,394.3,237.8,394.3z"/>
		<path class="st7" d="M262.2,105.7h-24.4c-5.3,0-8.6-5.7-5.9-10.3l12.2-21.1c2.6-4.6,9.2-4.6,11.9,0l12.2,21.1
			C270.8,99.9,267.5,105.7,262.2,105.7z"/>
		<circle class="st7" cx="250" cy="250" r="24"/>
	</g>
	<rect x="152" y="172" class="st8" width="210" height="156"/>
	
		<rect x="145" y="172" transform="matrix(-1.836970e-16 1 -1 -1.836970e-16 500 5.684342e-14)" class="st8" width="210" height="156"/>
	<circle class="st7" cx="250" cy="250" r="23"/>
</g>
<g id="Layer_3">
	<path class="st9" d="M405.8,473H93.3c-67.4,0-109.7-73.4-76-131.9L173.6,70.9c33.7-58.5,118.3-58.5,152,0l156.2,270.2
		C515.5,399.6,473.2,473,405.8,473z"/>
	
		<ellipse transform="matrix(0.7375 -0.6753 0.6753 0.7375 -103.2117 234.4599)" class="st3" cx="250" cy="250" rx="107.5" ry="90.2"/>
</g>
</svg>
