<?xml version="1.0" encoding="utf-8"?>
<!-- Generator: Adobe Illustrator 26.5.2, SVG Export Plug-In . SVG Version: 6.00 Build 0)  -->
<svg version="1.1" id="Layer_1" xmlns="http://www.w3.org/2000/svg" xmlns:xlink="http://www.w3.org/1999/xlink" x="0px" y="0px"
	 viewBox="0 0 500 500" style="enable-background:new 0 0 500 500;" xml:space="preserve">
<style type="text/css">
	.st0{fill:#FFFFFF;stroke:#000000;stroke-width:10;stroke-miterlimit:10;}
	.st1{stroke:#000000;stroke-width:10;stroke-miterlimit:10;}
	.st2{display:none;}
	.st3{display:inline;}
</style>
<g>
	<g>
		<path class="st0" d="M253.9,66.9l13.9,61.8c11.2,49.7,50,88.5,99.6,99.6l61.8,13.9c8.2,1.9,8.2,13.6,0,15.5l-61.8,13.9
			c-49.7,11.2-88.5,50-99.6,99.6l-13.9,61.8c-1.9,8.2-13.6,8.2-15.5,0l-13.9-61.8c-11.2-49.7-50-88.5-99.6-99.6L63,257.7
			c-8.2-1.9-8.2-13.6,0-15.5l61.8-13.9c49.7-11.2,88.5-50,99.6-99.6l13.9-61.8C240.3,58.6,252,58.6,253.9,66.9z"/>
		<path class="st1" d="M246.2,447.5C246.2,447.5,246.2,447.5,246.2,447.5c-7.7,0-14-5.1-15.7-12.6l-13.9-61.8
			c-10.4-46.3-47.1-83-93.5-93.4l-61.8-13.9c-7.5-1.7-12.6-8-12.6-15.7c0-7.7,5-14.1,12.6-15.7l61.8-13.9
			c46.4-10.4,83-47.1,93.5-93.4l13.9-61.8c1.7-7.5,8-12.6,15.7-12.6h0c7.7,0,14,5,15.7,12.6v0l13.9,61.8
			c10.4,46.3,47.1,83,93.4,93.4l61.8,13.9c7.5,1.7,12.6,8,12.6,15.8c0,7.7-5.1,14-12.6,15.7l-61.8,13.9
			c-46.3,10.4-83,47.1-93.4,93.4l-13.9,61.8C260.2,442.5,253.9,447.5,246.2,447.5z M253.9,66.9l-8,1.7l-13.4,61.9
			c-11.8,52.5-53.3,94-105.8,105.9l-61.8,13.9l61.8,13.4c52.5,11.8,94,53.4,105.8,105.9l13.9,61.8l13.4-61.8
			c11.8-52.5,53.4-94.1,105.9-105.9l61.8-13.9l-61.8-13.4c-52.5-11.8-94-53.4-105.9-105.9l-13.9-61.8L253.9,66.9z"/>
	</g>
	<g>
		<path class="st0" d="M422.8,326.1L422.8,326.1c4.8,21.1,21.2,37.6,42.4,42.4l0,0c8.2,1.9,8.2,13.6,0,15.5l0,0
			c-21.1,4.7-37.6,21.2-42.4,42.4l0,0c-1.9,8.2-13.6,8.2-15.5,0l0,0c-4.7-21.1-21.2-37.6-42.4-42.4l0,0c-8.2-1.9-8.2-13.6,0-15.5
			l0,0c21.1-4.7,37.6-21.2,42.4-42.4l0,0C409.2,317.8,420.9,317.8,422.8,326.1z"/>
		<path class="st1" d="M415.1,440.6c-7.7,0-14-5.1-15.7-12.6c-4-17.9-18.2-32.1-36.2-36.2c-7.5-1.7-12.6-8-12.6-15.7
			s5.1-14,12.6-15.7c17.9-4,32.1-18.2,36.2-36.2c1.7-7.5,8-12.6,15.7-12.6s14,5.1,15.7,12.6v0c4.1,17.9,18.2,32.1,36.2,36.1
			c7.5,1.7,12.6,8,12.6,15.7s-5.1,14-12.6,15.7c-17.9,4-32.1,18.2-36.2,36.2C429.1,435.6,422.8,440.6,415.1,440.6z M422.8,326.1
			l-8,1.7c-4.9,24.2-23.9,43.2-48,48.6c24.1,4.9,43.2,23.9,48.6,48c4.9-24.1,24-43.2,48-48.6c-24.1-4.9-43.2-23.9-48.6-48
			L422.8,326.1z"/>
	</g>
	<g>
		<path class="st0" d="M92.7,66.9L92.7,66.9c4.8,21.1,21.2,37.6,42.4,42.4l0,0c8.2,1.9,8.2,13.6,0,15.5l0,0
			c-21.1,4.7-37.6,21.2-42.4,42.4l0,0c-1.9,8.2-13.6,8.2-15.5,0l0,0c-4.7-21.1-21.2-37.6-42.4-42.4l0,0c-8.2-1.9-8.2-13.6,0-15.5
			l0,0C56,104.5,72.4,88,77.2,66.9l0,0C79.1,58.6,90.8,58.6,92.7,66.9z"/>
		<path class="st1" d="M84.9,181.4c-7.7,0-14-5.1-15.7-12.6c-4-17.9-18.2-32.1-36.2-36.2c-7.5-1.7-12.6-8-12.6-15.7
			s5.1-14,12.6-15.7C51,97.2,65.2,83,69.2,65.1c1.7-7.5,8-12.6,15.7-12.6c7.7,0,14,5.1,15.7,12.6v0c4,17.9,18.2,32.1,36.2,36.2
			c7.5,1.7,12.6,8,12.6,15.7s-5.1,14-12.6,15.7c-17.9,4-32.1,18.2-36.2,36.2C99,176.4,92.6,181.4,84.9,181.4z M92.7,66.9l-8,1.7
			c-4.9,24.2-23.9,43.2-48,48.6c24.1,4.9,43.1,23.9,48.6,48c4.9-24.1,23.9-43.2,48-48.6c-24.1-4.9-43.2-23.9-48.6-48L92.7,66.9z"/>
	</g>
</g>
<g class="st2">
	<g class="st3">
		<path class="st0" d="M271.9,66.5l13.9,62c11.2,49.8,50.1,88.7,99.9,99.9l62,13.9c8.3,1.9,8.3,13.6,0,15.5l-62,13.9
			c-49.8,11.2-88.7,50.1-99.9,99.9l-13.9,62c-1.9,8.3-13.6,8.3-15.5,0l-13.9-62c-11.2-49.8-50.1-88.7-99.9-99.9l-62-13.9
			c-8.3-1.9-8.3-13.6,0-15.5l62-13.9c49.8-11.2,88.7-50.1,99.9-99.9l13.9-62C258.2,58.2,270,58.2,271.9,66.5z"/>
		<path class="st1" d="M264.1,447.5c-7.5,0-13.7-4.9-15.3-12.3l-13.9-62c-10.5-46.6-47.4-83.5-94-94l-62-13.9
			c-7.3-1.7-12.3-7.8-12.3-15.3s4.9-13.7,12.3-15.3l62-13.9c46.6-10.5,83.5-47.4,94-94l13.9-62c1.7-7.3,7.8-12.3,15.3-12.3
			c7.5,0,13.7,4.9,15.3,12.3l13.9,62c10.5,46.6,47.4,83.5,94,94l62,13.9c7.3,1.7,12.3,7.8,12.3,15.3s-4.9,13.7-12.3,15.3l-62,13.9
			c-46.6,10.5-83.5,47.4-94,94l-13.9,62C277.8,442.6,271.6,447.5,264.1,447.5z M264.2,68L250,130.1c-11.8,52.4-53.3,94-105.7,105.8
			l-62,13.9l62,14.2c52.4,11.8,94,53.3,105.7,105.8l13.9,62l14.3-62c11.8-52.4,53.3-94,105.7-105.8l62-13.9l-62-14.2
			c-52.4-11.8-93.9-53.3-105.7-105.8l-13.9-62C264.3,68,264.2,68,264.2,68z"/>
	</g>
	<g class="st3">
		<path class="st0" d="M110.3,66.5L110.3,66.5c4.8,21.2,21.3,37.7,42.5,42.5l0,0c8.3,1.9,8.3,13.6,0,15.5l0,0
			c-21.2,4.8-37.7,21.3-42.5,42.5l0,0c-1.9,8.3-13.6,8.3-15.5,0l0,0c-4.8-21.2-21.3-37.7-42.5-42.5l0,0c-8.3-1.9-8.3-13.6,0-15.5
			l0,0c21.2-4.8,37.7-21.3,42.5-42.5l0,0C96.7,58.2,108.4,58.2,110.3,66.5z"/>
		<path class="st1" d="M102.5,180.8c-7.5,0-13.7-4.9-15.3-12.3c-4.1-18.1-18.4-32.5-36.6-36.6c-7.3-1.7-12.3-7.8-12.3-15.3
			c0-7.5,4.9-13.7,12.3-15.3c18.2-4.1,32.5-18.4,36.6-36.6c1.7-7.3,7.8-12.3,15.3-12.3c7.5,0,13.7,4.9,15.3,12.3l0,0
			c4.1,18.1,18.4,32.5,36.6,36.6c7.3,1.7,12.3,7.8,12.3,15.3c0,7.5-4.9,13.7-12.3,15.3c-18.2,4.1-32.5,18.4-36.6,36.6
			C116.2,175.9,110.1,180.8,102.5,180.8z M102.6,68C97,92.2,78,111.1,54,116.5c24,5.7,42.9,24.7,48.3,48.7c5.7-24,24.7-43,48.7-48.3
			c-24-5.7-43-24.7-48.3-48.7l0,0C102.7,68,102.6,68,102.6,68z"/>
	</g>
</g>
</svg>
