<?xml version="1.0" encoding="utf-8"?>
<!-- Generator: Adobe Illustrator 27.5.0, SVG Export Plug-In . SVG Version: 6.00 Build 0)  -->
<svg version="1.1" id="Layer_1" xmlns="http://www.w3.org/2000/svg" xmlns:xlink="http://www.w3.org/1999/xlink" x="0px" y="0px"
	 viewBox="0 0 100 100" style="enable-background:new 0 0 100 100;" xml:space="preserve">
<style type="text/css">
	.st0{fill:#FAB746;}
	.st1{fill:#85FA3F;}
	.st2{fill:#F546BA;}
	.st3{fill:#F79131;}
	.st4{fill:#35A3FA;}
</style>
<g>
	<path class="st0" d="M16.1,1.7H50c7.5,0,13.6,6.2,13.6,13.8l0,0c0,7.6-6.1,13.8-13.6,13.8H16.1c-7.5,0-13.6-6.2-13.6-13.8l0,0
		C2.5,7.8,8.6,1.7,16.1,1.7z"/>
	<path class="st1" d="M83.9,1.7L83.9,1.7c7.5,0,13.6,6.2,13.6,13.8V50c0,7.6-6.1,13.8-13.6,13.8l0,0c-7.5,0-13.6-6.2-13.6-13.8V15.5
		C70.4,7.8,76.4,1.7,83.9,1.7z"/>
	<ellipse class="st0" cx="16.1" cy="50" rx="13.6" ry="13.8"/>
	<ellipse class="st2" cx="50" cy="50" rx="13.6" ry="13.8"/>
	<ellipse class="st3" cx="16.1" cy="84.5" rx="13.6" ry="13.8"/>
	<ellipse class="st4" cx="50" cy="84.5" rx="13.6" ry="13.8"/>
	<ellipse class="st3" cx="83.9" cy="84.5" rx="13.6" ry="13.8"/>
</g>
</svg>
